<svg id="Layer_1" data-name="Layer 1" xmlns="http://www.w3.org/2000/svg" xmlns:xlink="http://www.w3.org/1999/xlink" viewBox="0 0 3444.09 888"><defs><style>.cls-1{fill:#ced0d7;}.cls-12,.cls-2{fill:#fff;}.cls-2{stroke:#e6e7e8;stroke-miterlimit:10;stroke-width:5px;}.cls-3{fill:#2c2a29;}.cls-4{fill:#f4a01e;}.cls-5{fill:#e32528;}.cls-6{fill:#eb6424;}.cls-7{fill:#2a2a6e;}.cls-8{fill:#139ad6;}.cls-9{fill:#263b80;}.cls-10{fill:#232c65;}.cls-11{fill:#26a6d1;}.cls-13{fill:#e1e7ea;}.cls-14{fill:#ff6d00;}.cls-15{fill:#3d95ce;}.cls-16{fill:url(#linear-gradient);}.cls-17{fill:url(#linear-gradient-2);}.cls-18{fill:#1174ce;}.cls-19{fill:#0f549d;}.cls-20{fill:#02375e;}.cls-21{fill:#146643;}.cls-22{fill:#1bcc38;}.cls-23{fill:#329947;}.cls-24{fill:#e20e37;}.cls-25{fill:#b41f36;}.cls-26{fill:#720a1e;}</style><linearGradient id="linear-gradient" x1="-1658.16" y1="902.92" x2="-1658.16" y2="891.67" gradientTransform="matrix(8, 0, 0, -8, 15974.63, 7785)" gradientUnits="userSpaceOnUse"><stop offset="0" stop-color="#6dc7ff"/><stop offset="1" stop-color="#e6abff"/></linearGradient><linearGradient id="linear-gradient-2" x1="-1642.28" y1="901.98" x2="-1642.28" y2="891.05" gradientTransform="matrix(8, 0, 0, -8, 15974.63, 7785)" gradientUnits="userSpaceOnUse"><stop offset="0" stop-color="#1a6dff"/><stop offset="1" stop-color="#c822ff"/></linearGradient></defs><rect class="cls-1" x="3392.04" y="196.14" width="17.92" height="619.96"/><rect class="cls-1" x="66.21" y="196.14" width="17.93" height="620.69"/><rect class="cls-1" x="66.21" y="801.26" width="3343.75" height="17.92"/><rect class="cls-1" x="66.19" y="196.14" width="2102.14" height="17.92"/><path d="M2694.93,322l-4.3,8.29h-5.29l19.29-36.17h4.77l7.81,36.17h-5l-1.73-8.29ZM2706,300.63l-8.91,17.09h12.42Z"/><path d="M3026,327.09a9.33,9.33,0,0,0,4.71-1.07,6.94,6.94,0,0,0,2.78-2.75,7.23,7.23,0,0,0,.9-3.46,4.28,4.28,0,0,0-.87-2.7,8.61,8.61,0,0,0-3-2.18L3026,313a15.35,15.35,0,0,1-5.59-3.77,7.54,7.54,0,0,1-1.7-5,9.85,9.85,0,0,1,1.63-5.63,10.37,10.37,0,0,1,4.53-3.75,16.18,16.18,0,0,1,6.68-1.31,17.75,17.75,0,0,1,5.51.86,11.82,11.82,0,0,1,4.14,2.44l-.79,4.87A13.78,13.78,0,0,0,3031,298a8.37,8.37,0,0,0-5.32,1.63,5,5,0,0,0-2.07,4.14,3.24,3.24,0,0,0,1,2.41,14.34,14.34,0,0,0,3.75,2.25l4.45,2a13.48,13.48,0,0,1,5.11,3.85,8.21,8.21,0,0,1,1.5,5,13.12,13.12,0,0,1-1.42,6.08,10.82,10.82,0,0,1-4.56,4.53,16.3,16.3,0,0,1-8.07,1.76q-6.77,0-10.64-3.41l.84-5.18a15.39,15.39,0,0,0,10.38,4.08"/><path d="M3065,306.89a10.64,10.64,0,0,1,2.59,7.41,15.88,15.88,0,0,1-.16,2.52,22.74,22.74,0,0,1-.52,2.36h-19.71a7.56,7.56,0,0,0,2,6.05,8.24,8.24,0,0,0,6,2.13,16.18,16.18,0,0,0,4.77-.66,17.59,17.59,0,0,0,4.24-2l-.62,3.93a16.61,16.61,0,0,1-9.54,2.73,12.25,12.25,0,0,1-6.27-1.55,10.12,10.12,0,0,1-4-4.27,13.23,13.23,0,0,1-1.39-6.13,16.29,16.29,0,0,1,1.67-6.94,15.28,15.28,0,0,1,5.09-6,14.05,14.05,0,0,1,8.38-2.44q4.89,0,7.48,2.86m-13.79,3.25a10.81,10.81,0,0,0-3.38,5.27H3063a9,9,0,0,0,.05-1.16,6.46,6.46,0,0,0-1.57-4.61,5.81,5.81,0,0,0-4.46-1.68,8.61,8.61,0,0,0-5.84,2.18"/><path d="M3083.76,308.8a7,7,0,0,0-5.24,2.23,11.73,11.73,0,0,0-2.83,6.47l-2,12.95H3069l4-25.58h4.51l-.68,4.35q3.14-4.52,7.54-4.51a13,13,0,0,1,2.05.16l-.63,4.09a11.93,11.93,0,0,0-2-.16"/><polygon points="3097.78 330.45 3093.43 330.45 3087.35 304.87 3092.02 304.87 3096.37 324.84 3107.01 304.87 3111.88 304.87 3097.78 330.45"/><path d="M3114.73,330.45h-4.67l3.93-25.58h4.72Zm.55-30.51a2.54,2.54,0,0,1-.71-1.83,3.14,3.14,0,0,1,1-2.36,3.42,3.42,0,0,1,2.41-1,2.4,2.4,0,0,1,1.81.74,2.54,2.54,0,0,1,.71,1.83,3.15,3.15,0,0,1-1.05,2.33,3.33,3.33,0,0,1-2.41,1,2.39,2.39,0,0,1-1.81-.73"/><path d="M3125.65,329.82a11.28,11.28,0,0,1-4-4.27,12.36,12.36,0,0,1-1.46-5.95A16.26,16.26,0,0,1,3122,312a14.52,14.52,0,0,1,5.4-5.74,15.52,15.52,0,0,1,8.3-2.18,11.62,11.62,0,0,1,7.5,2.31l-.79,4.77a9.13,9.13,0,0,0-7-2.83,9.75,9.75,0,0,0-5.42,1.54,10.7,10.7,0,0,0-3.7,4.06,11.58,11.58,0,0,0-1.31,5.4,8.12,8.12,0,0,0,2,5.69,7,7,0,0,0,5.45,2.17,12.49,12.49,0,0,0,4.3-.78,11.35,11.35,0,0,0,3.83-2.31l-.73,4.83a14.7,14.7,0,0,1-4.09,1.93,15.82,15.82,0,0,1-4.35.58,10.88,10.88,0,0,1-5.77-1.57"/><path d="M3166.42,306.89a10.6,10.6,0,0,1,2.6,7.41,15.72,15.72,0,0,1-.17,2.52,22.74,22.74,0,0,1-.52,2.36h-19.71a7.57,7.57,0,0,0,2.05,6.05,8.21,8.21,0,0,0,6,2.13,16.29,16.29,0,0,0,4.78-.66,17.76,17.76,0,0,0,4.24-2l-.63,3.93a16.61,16.61,0,0,1-9.54,2.73,12.19,12.19,0,0,1-6.26-1.55,10.21,10.21,0,0,1-4-4.27,13.23,13.23,0,0,1-1.39-6.13,16.3,16.3,0,0,1,1.68-6.94,15.25,15.25,0,0,1,5.08-6A14.1,14.1,0,0,1,3159,304q4.88,0,7.47,2.86m-13.78,3.25a10.9,10.9,0,0,0-3.39,5.27h15.21a11.32,11.32,0,0,0,.05-1.16,6.46,6.46,0,0,0-1.58-4.61,5.78,5.78,0,0,0-4.45-1.68,8.57,8.57,0,0,0-5.84,2.18"/><path d="M2913.09,275.34h-19.84a2.76,2.76,0,0,0-2.72,2.33l-8,50.86a1.65,1.65,0,0,0,1.63,1.91h10.18a1.93,1.93,0,0,0,1.91-1.63l2.27-14.42a2.74,2.74,0,0,1,2.72-2.32h6.28c13.06,0,20.61-6.33,22.58-18.86.88-5.48,0-9.79-2.53-12.8-2.83-3.32-7.83-5.07-14.46-5.07m2.29,18.58c-1.09,7.12-6.52,7.12-11.78,7.12h-3l2.1-13.3a1.66,1.66,0,0,1,1.64-1.39h1.37c3.58,0,7,0,8.7,2,1.05,1.22,1.36,3,1,5.53"/><path d="M2771.61,275.34h-19.84a2.76,2.76,0,0,0-2.72,2.33l-8,50.86a1.64,1.64,0,0,0,1.63,1.91h9.47a2.75,2.75,0,0,0,2.72-2.33l2.17-13.72a2.74,2.74,0,0,1,2.72-2.32H2766c13.06,0,20.61-6.33,22.58-18.86.88-5.48,0-9.79-2.53-12.8-2.83-3.32-7.83-5.07-14.46-5.07m2.29,18.58c-1.09,7.12-6.52,7.12-11.79,7.12h-3l2.1-13.3a1.65,1.65,0,0,1,1.63-1.39h1.38c3.58,0,7,0,8.7,2,1.05,1.22,1.36,3,1,5.53"/><path d="M2830.9,293.69h-9.5a1.65,1.65,0,0,0-1.63,1.4l-.42,2.65-.67-1c-2.06-3-6.64-4-11.22-4-10.49,0-19.46,7.95-21.2,19.1-.91,5.57.38,10.88,3.54,14.59,2.9,3.41,7,4.84,12,4.84a18.17,18.17,0,0,0,13.15-5.44l-.43,2.64a1.67,1.67,0,0,0,1.64,1.91h8.55a2.77,2.77,0,0,0,2.73-2.32l5.13-32.52a1.65,1.65,0,0,0-1.63-1.91m-13.24,18.49a10.59,10.59,0,0,1-10.72,9.07,7.37,7.37,0,0,1-7.87-9.24,10.64,10.64,0,0,1,10.65-9.14,8,8,0,0,1,6.33,2.59,8.16,8.16,0,0,1,1.61,6.72"/><path d="M2972.38,293.69h-9.5a1.65,1.65,0,0,0-1.63,1.4l-.42,2.65-.67-1c-2-3-6.64-4-11.22-4-10.49,0-19.45,7.95-21.2,19.1-.91,5.57.38,10.88,3.54,14.59,2.9,3.41,7,4.84,12,4.84a18.17,18.17,0,0,0,13.15-5.44l-.42,2.64a1.65,1.65,0,0,0,1.63,1.91h8.55a2.77,2.77,0,0,0,2.73-2.32L2974,295.6a1.65,1.65,0,0,0-1.63-1.91m-13.24,18.49a10.59,10.59,0,0,1-10.72,9.07,8,8,0,0,1-6.38-2.57,8.1,8.1,0,0,1-1.49-6.67,10.64,10.64,0,0,1,10.65-9.14,8,8,0,0,1,6.33,2.59,8.16,8.16,0,0,1,1.61,6.72"/><path d="M2881.49,293.69h-9.55a2.75,2.75,0,0,0-2.28,1.21l-13.17,19.4-5.58-18.64a2.75,2.75,0,0,0-2.64-2h-9.39a1.65,1.65,0,0,0-1.56,2.19l10.51,30.85-9.89,14a1.65,1.65,0,0,0,1.35,2.6h9.54a2.75,2.75,0,0,0,2.26-1.18l31.75-45.82a1.65,1.65,0,0,0-1.35-2.6"/><path d="M2983.57,276.74l-8.14,51.79a1.65,1.65,0,0,0,1.63,1.91h8.19a2.76,2.76,0,0,0,2.73-2.32l8-50.87a1.65,1.65,0,0,0-1.63-1.91h-9.16a1.66,1.66,0,0,0-1.64,1.4"/><path d="M2239.72,250V233.83h12.73V155.9h-12.73V139.75h50.93c23.38,0,37.63,10.83,37.63,29.65,0,12.35-7.22,19.95-16.34,23.56,13.11,3.62,22.42,12.93,22.42,25.66,0,20.15-15.58,31.36-41.05,31.36Zm30.22-94.08v30h19c14.26,0,21.67-5.32,21.67-15,0-9.89-7.6-15-21.86-15Zm0,77.93h21.66c16.73,0,25.09-5.52,25.09-16.16,0-10.45-8.93-16.15-26.42-16.15h-20.33Z"/><path d="M2426.74,192.58c-1.91-6.46-6.66-10.26-12.93-10.26-14.63,0-28.51,10.83-28.51,30.6v20.91h28.13V250h-62.72V233.83h17.87V185.17h-14.07V169h30.6V182.7c5.13-9.5,15.59-16.34,29.46-16.34,15.59,0,25.28,8.93,28.13,21.66Z"/><path d="M2512.26,202.85v-4.56c0-11.41-9.12-16.16-19-16.16-9.31,0-17.3,3.8-23.76,9.69l-11-12c7.6-7,18.43-13.49,34.78-13.49,20.33,0,36.11,10.83,36.11,31.35v36.12h11.78V250h-28.89v-8.55c-4.37,7-16.15,11.21-27.75,11.21-16.72,0-31.16-8.55-31.16-25.47,0-19.95,19.57-27.55,37.44-27.55A78.76,78.76,0,0,1,2512.26,202.85Zm0,14.44a66.46,66.46,0,0,0-20.71-3.42c-10.65,0-20.91,3.42-20.91,13.11,0,7.23,6.46,10.65,15.4,10.65,12.35,0,26.22-6.66,26.22-18.06Z"/><path d="M2642.65,233.83V250h-81.73V233.83h33.83V185.17H2568.9V169h42.58v64.81Zm-31.17-81h-18.82v-24.7h18.82Z"/><path d="M2662.8,233.83h12.35V185.17h-11.6V169h28.13v10.45c4.94-8,15.21-13.11,27.75-13.11,18.06,0,31,11.4,31,29.83v37.64h12.35V250h-42V233.83h12.93V200.76c0-14.07-8.56-18.06-16.35-18.06-12.73,0-25.47,9.5-25.47,24.14v27h12.93V250h-42Z"/><path d="M2789.65,185.17h-21.09V169h21.09V139.75h16.73V169h39.34v16.15h-39.34v34c0,12.55,8.74,17.68,18.82,17.68,9.5,0,17.48-5.32,23.37-11.22l11.22,11.6c-7.42,8-18.82,15.39-34.59,15.39-20.34,0-35.55-11.21-35.55-32.88Z"/><path d="M2951,192.58c-1.9-6.46-6.65-10.26-12.92-10.26-14.63,0-28.51,10.83-28.51,30.6v20.91h28.13V250H2875V233.83h17.87V185.17h-14.07V169h30.6V182.7c5.13-9.5,15.59-16.34,29.46-16.34,15.59,0,25.28,8.93,28.13,21.66Z"/><path d="M3063.53,237.63c-8.36,8.74-23.19,15-39.72,15-27.18,0-46.18-18.24-46.18-43.14s18.43-43.14,44.09-43.14c25.47,0,43.33,19.57,43.33,46.18v2.85H2995.3c2.85,13.49,14.06,21.67,28.7,21.67,12.16,0,22.62-4.94,28.32-11.22Zm-67.47-36.49h49.8a24.59,24.59,0,0,0-24.14-19.39C3008.79,181.75,2998.91,189.73,2996.06,201.14Z"/><path d="M3167.5,237.63c-8.37,8.74-23.19,15-39.73,15-27.17,0-46.18-18.24-46.18-43.14s18.44-43.14,44.09-43.14c25.47,0,43.34,19.57,43.34,46.18v2.85h-69.75c2.85,13.49,14.06,21.67,28.69,21.67,12.17,0,22.62-4.94,28.32-11.22ZM3100,201.14h49.79a24.57,24.57,0,0,0-24.14-19.39C3112.76,181.75,3102.88,189.73,3100,201.14Z"/><rect class="cls-1" x="3308.81" y="196.14" width="98.31" height="17.92"/><path class="cls-2" d="M1207.4,694.38a17.11,17.11,0,0,1-17.12,17.1H882.36a17.11,17.11,0,0,1-17.1-17.1V514.77a17.11,17.11,0,0,1,17.1-17.12h307.92a17.11,17.11,0,0,1,17.12,17.12Z"/><path class="cls-2" d="M2235.81,694.38a17.11,17.11,0,0,1-17.12,17.1H1910.77a17.1,17.1,0,0,1-17.09-17.1V514.76a17.1,17.1,0,0,1,17.09-17.11h307.92a17.11,17.11,0,0,1,17.12,17.11Z"/><path class="cls-2" d="M2597,696.08a17.11,17.11,0,0,1-17.12,17.1H2271.92a17.11,17.11,0,0,1-17.1-17.1V516.46a17.1,17.1,0,0,1,17.1-17.11h307.92A17.11,17.11,0,0,1,2597,516.46Z"/><path class="cls-2" d="M2959.17,697.23a17.11,17.11,0,0,1-17.12,17.1H2634.13a17.1,17.1,0,0,1-17.09-17.1V517.62a17.1,17.1,0,0,1,17.09-17.12h307.92a17.11,17.11,0,0,1,17.12,17.12Z"/><path class="cls-2" d="M3317.52,697.23a17.1,17.1,0,0,1-17.11,17.1H2992.48a17.1,17.1,0,0,1-17.09-17.1V517.62a17.1,17.1,0,0,1,17.09-17.12h307.93a17.11,17.11,0,0,1,17.11,17.12Z"/><path class="cls-2" d="M486.27,694.38a17.11,17.11,0,0,1-17.12,17.1H161.23a17.11,17.11,0,0,1-17.1-17.1V514.77a17.11,17.11,0,0,1,17.1-17.12H469.15a17.11,17.11,0,0,1,17.12,17.12Z"/><path class="cls-2" d="M848.18,694.38a17.11,17.11,0,0,1-17.12,17.1H523.13A17.1,17.1,0,0,1,506,694.38V514.77a17.11,17.11,0,0,1,17.09-17.12H831.06a17.11,17.11,0,0,1,17.11,17.12V694.38Z"/><path class="cls-3" d="M615.34,666.09c-.46-.48-1.4-.94-1.89-1.41s-1.4-.48-2.35-.48h-1.41l-1.42.48-1.41.93L605.45,667c-.46-.93-1.4-1.41-2.35-2.34a5.89,5.89,0,0,0-2.83-.48h-1.41l-1.42.48-1.41.47a3.56,3.56,0,0,0-.95,1.41v-1.88H591.8v15.08h3.28v-8.5a2.81,2.81,0,0,1,.48-1.88c.47-.46.47-.94.94-1.4s.94-.47,1.42-1a1.74,1.74,0,0,1,1.41-.46,2.74,2.74,0,0,1,2.36,1,5.17,5.17,0,0,1,.94,2.82v8.47h3.3v-8.47a2.91,2.91,0,0,1,.46-1.89c.47-.46.47-.93,1-1.42s.93-.46,1.41-.93a1.7,1.7,0,0,1,1.4-.48,2.77,2.77,0,0,1,2.37.95,4.94,4.94,0,0,1,.94,2.82v8.49h3.31V668a3.51,3.51,0,0,0-.48-2.37l-.95.48m17.44.47a4,4,0,0,0-2.35-1.41,6,6,0,0,0-2.84-.47,16.64,16.64,0,0,0-2.81.47,9.34,9.34,0,0,0-2.35,1.41,4,4,0,0,0-1.43,2.36,7.85,7.85,0,0,0-.48,3.3c0,1.4.48,2.35.48,3.29a10,10,0,0,0,1.43,2.36,3.91,3.91,0,0,0,2.35,1.41,5.81,5.81,0,0,0,2.81.48c.95,0,2.36-.48,2.84-.48.94-.48,1.41-.94,2.35-1.41v1.89h3.3V664.68h-3.3Zm0,8c-.47.48-.47,1.42-.94,1.42s-1,.94-1.41.94a2.87,2.87,0,0,1-1.89.47,2.83,2.83,0,0,1-1.88-.47l-1.41-.94c-.47-.48-.47-.94-1-1.42a3.94,3.94,0,0,1,0-3.77c.48-.47.48-1.42,1-1.42.46-.46.94-.94,1.41-.94a2.87,2.87,0,0,1,1.88-.46,2.91,2.91,0,0,1,1.89.46l1.41.94c.47.48.47,1,.94,1.42a2.84,2.84,0,0,1,.47,1.89C633.25,673.16,632.78,673.62,632.78,674.57Zm18.85-2.35a6.17,6.17,0,0,0-3.77-1.42l-1.41-.47c-.49,0-.49,0-.94-.47l-1-.48-.47-.46h-.94c0-.48.48-.94.48-1.41.46-.49,1.43-.49,2.34-.49h1.43c.47,0,.94.49,1.41.49l1.42.47c.47.46.47.46.93.46l1.42-2.83-2.82-1.41a9.49,9.49,0,0,0-3.31-.46,6.06,6.06,0,0,0-2.82.46c-.94.48-1.42.48-2.36.95l-1.4,1.41c-.48.46-.48,1.42-.48,2.36a2.9,2.9,0,0,0,1.4,2.83,5.38,5.38,0,0,0,3.77,1.41l1.41.46c.94,0,1.42.47,2.37.47.47.48.47.48.47,1.42s-.47.94-.94,1.42-1.42.47-2.82.47h-1.9c-.46,0-.94-.47-1.41-.47s-1-.48-1.41-.48l-.94-.46L638,678.34l1.9.94,1.87.48a4.8,4.8,0,0,1,1.41.46h1.41c1.41,0,2.35,0,2.83-.46,1-.48,1.41-.48,2.37-1l1.4-1.4a3.46,3.46,0,0,0,.48-2.35,1.77,1.77,0,0,0,0-2.83m31.09-5.66a4,4,0,0,0-2.35-1.41,6,6,0,0,0-2.84-.47,16.62,16.62,0,0,0-2.82.47,10.23,10.23,0,0,0-2.36,1.41,4,4,0,0,0-1.4,2.36,8.16,8.16,0,0,0-.46,3.3c0,1.4.46,2.35.46,3.29a10.76,10.76,0,0,0,1.4,2.36c.48.47,1.42,1.41,2.36,1.41a6.9,6.9,0,0,0,2.82.48c1.42,0,2.37-.48,3.32-.48.94-.48,2.35-.94,2.83-1.88l-1.42-2.35a10.17,10.17,0,0,1-2.36,1.4,4.23,4.23,0,0,1-2.37.48c-.46,0-1.41,0-1.41-.48-.46,0-.94-.46-1.41-.46a4,4,0,0,1-.94-1.42,2.89,2.89,0,0,1-.46-1.88h11.3v-1.43c0-1.4-.48-2.34-.48-3.28-.45,0-.93-.47-1.41-1.42m-9.41,4.7.46-1.4c.48-.48.48-.94.94-1.42s.95-.46,1.41-.93a1.7,1.7,0,0,1,1.41-.49,5,5,0,0,1,2.84,1,3.94,3.94,0,0,1,1.42,2.82l-8.48.46Zm53.71-4.7c-.48-.47-1.42-1.41-2.36-1.41a6,6,0,0,0-2.83-.47,16.42,16.42,0,0,0-2.82.47,10.23,10.23,0,0,0-2.36,1.41,4,4,0,0,0-1.42,2.36,8.16,8.16,0,0,0-.46,3.3c0,1.4.46,2.35.46,3.29a10.73,10.73,0,0,0,1.42,2.36c.48.47,1.42,1.41,2.36,1.41a5.85,5.85,0,0,0,2.82.48,16.1,16.1,0,0,0,2.83-.48c.94-.48,1.42-.94,2.36-1.41v1.89h3.29V664.68H727Zm0,8c-.48.48-.48,1.42-.94,1.42-.48.46-.94.94-1.42.94a2.81,2.81,0,0,1-1.88.47,2.87,2.87,0,0,1-1.89-.47l-1.42-.94c-.46-.48-.46-.94-.94-1.42a4.09,4.09,0,0,1,0-3.77c.48-.47.48-1.42.94-1.42.48-.46.95-.94,1.42-.94a2.91,2.91,0,0,1,1.89-.46,2.86,2.86,0,0,1,1.88.46l1.42.94c.46.47.46,1,.94,1.42a2.79,2.79,0,0,1,.48,1.89A3.51,3.51,0,0,1,727,674.57Zm-61.26,2.83a2.3,2.3,0,0,1-1.4.47c-.48,0-.48,0-1-.47-.47,0-.47-.47-.94-.47L662,676l-.48-1.42V668h5.67v-2.83h-5.67v-4.72h-3.28v4.72H655.4V668h2.84v6.59c0,2.36.46,3.77,1.4,4.71a5.37,5.37,0,0,0,3.77,1.42,5.89,5.89,0,0,0,2.83-.48l1.4-.46-1.4-2.83c.49,0,0,0-.48.47m30.15-13.2a3.45,3.45,0,0,0-2.34.48,3.6,3.6,0,0,0-1.88,1.88V664.2h-2.83v15.08h2.83V670.8a2.86,2.86,0,0,1,.46-1.88,1.71,1.71,0,0,0,.48-1.41c.47-.49.94-.49,1.41-1a1.72,1.72,0,0,1,1.41-.47h1.42c.45,0,.45,0,.45.47l.95-3.3-.95-.46c-.45,1.4-.45,1.4-1.41,1.4m46.65,0a20,20,0,0,0-2.35.48,3.6,3.6,0,0,0-1.88,1.88V664.2h-2.82v15.08h2.82V670.8a2.86,2.86,0,0,1,.46-1.88,1.71,1.71,0,0,0,.48-1.41c.46-.49.94-.49,1.41-1a1.73,1.73,0,0,1,1.41-.47h1.41c.47,0,.47,0,.47.47l.94-3.3-.94-.46c-.47,1.4-.94,1.4-1.41,1.4m15.56-5.65v8a4,4,0,0,0-2.36-1.41,6,6,0,0,0-2.83-.47,17,17,0,0,0-2.83.47,10.23,10.23,0,0,0-2.36,1.41,4,4,0,0,0-1.4,2.36,7.85,7.85,0,0,0-.48,3.3c0,1.4.48,2.35.48,3.29a10.76,10.76,0,0,0,1.4,2.36c.48.47,1.42,1.41,2.36,1.41a5.87,5.87,0,0,0,2.83.48c.93,0,2.36-.48,2.83-.48,1-.48,1.41-.94,2.36-1.41v1.89h3.29V658.08Zm0,16c-.47.48-.47,1.42-1,1.42-.46.46-.95.94-1.41.94a4,4,0,0,1-3.78,0l-1.4-.94c-.48-.48-.48-.94-.94-1.42a3.94,3.94,0,0,1,0-3.77c.46-.47.46-1.42.94-1.42.46-.46.94-.94,1.4-.94a4.11,4.11,0,0,1,3.78,0l1.41.94c.48.48.48,1,1,1.42a2.89,2.89,0,0,1,.46,1.89C758.12,673.16,758.12,673.62,758.12,674.57Zm-54.19-5.65c.47-.48,1-.94,1.41-.94a2.85,2.85,0,0,1,1.89-.47,5.11,5.11,0,0,1,2.35.47c.47.46,1.41.46,1.41.94l1.42-2.83a10,10,0,0,0-2.36-1.41,7.8,7.8,0,0,0-3.29-.48c-1,0-2.36.48-3.3.48a9.63,9.63,0,0,0-2.82,1.88,10.68,10.68,0,0,0-1.91,2.36,8.33,8.33,0,0,0-.45,3.3c0,1.4.45,2.35.45,3.29a4.82,4.82,0,0,0,1.91,2.36,7.26,7.26,0,0,0,2.82,1.89,8.18,8.18,0,0,0,3.3.46c.94,0,2.37-.46,3.29-.46.48-.48,1.42-.48,2.36-1.42L711,675.51l-1.41.94c-.45.48-1.42.48-2.35.48a2.81,2.81,0,0,1-1.89-.48c-.46-.46-1.41-.46-1.41-.94-.47-.46-.94-.94-.94-1.42a3.49,3.49,0,0,1-.47-2.34,4.32,4.32,0,0,1,.47-2.37c.47.48.94,0,.94-.46m64.55,9H769l.46.47.48.46v1.42l-.48.48-.46.46h-1.41l-.48-.46-.47-.48V678.8l.47-.46.48-.47h.93m0,2.83c.48,0,.48,0,.48-.48l.46-.46v-.48a.46.46,0,0,0-.46-.48l-.48-.46H768a.45.45,0,0,0-.46.46l-.48.48v.48a.46.46,0,0,0,.48.46l.93.48Zm0-1.9.48.48h-.48l.48.48h-.48l-.47-.48v.48h-.46v-1.42l.93.46Z"/><path class="cls-4" d="M767.07,624.61v-1.87h-.47v-.94h1.88v.46H768v1.9h-.94Zm3.29,0v-1.4l-.46,1.4h-.48l-.46-1.4v1.4h-.48v-2.35H769l.46,1.43.48-1.43h.46Z"/><path class="cls-5" d="M641.26,534.63a58,58,0,1,1-58,58c.48-32,26.38-58,58-58"/><path class="cls-4" d="M713.35,534.63a58,58,0,1,1-57.94,58,57.92,57.92,0,0,1,57.94-58"/><path class="cls-6" d="M677.07,547.36c13.2,10.83,22.14,26.86,22.14,45.22a56.47,56.47,0,0,1-22.14,45.24C663.88,627,654.92,611,654.92,592.58a60.17,60.17,0,0,1,22.15-45.22"/><polygon class="cls-7" points="266.28 653.24 288.89 653.24 307.26 566.07 284.66 566.07 266.28 653.24"/><path class="cls-7" d="M308.22,631.09c-1,1.42-4.24,17-4.24,19.31,16.95,7.08,46.63,7.56,59.35-8.94a25.12,25.12,0,0,0,4.73-20.72c-2.84-14.14-18.86-17.91-27.35-24.52-8.95-6.6,0-16,18.39-12.25,4.23,1,6.59,2.35,9.89,3.32l3.77-18.38c-8-2.38-12.25-3.77-22.15-3.77-13.18,0-28.27,5.17-34.39,17.42-7.54,14.61,0,26.39,13.19,33.46,4.71,2.35,13.66,6.11,15.08,10.83,2.34,8-8.48,10.84-15.08,10.37C316.69,635.35,315.75,633,308.22,631.09Z"/><path class="cls-7" d="M169.21,567v1.41c6.6.94,19.32,5.17,24,8.47,2.81,2.37,3.76,6.59,4.7,11.3l13.19,51.84c.95,4.24,2.36,9,3.3,13.19H238c1.88-3.77,16.48-39.11,18.36-43.82l13.68-32.51c.94-2.36,3.77-9,4.71-10.84H251.21L227.65,625c-1.42-1.87-8-42.88-9.43-49-2.36-10.37-9-9.89-19.32-9.89-9.43,0-19.8-.48-29.21,0Z"/><path class="cls-7" d="M448.62,653.24v-.49l-18.38-86.68c-5.65-.48-12.72,0-18.37,0-6.6,0-8.95,2.84-10.85,8-2.34,4.71-33,78.21-33,79.62h23.55l4.71-13.19h28.75a60.4,60.4,0,0,1,1.88,7.54c1.41,6.13.47,5.65,3.76,5.65,5.19-.47,11.78-.47,17.91-.47Zm-46.17-31.11c.47-1.88,10.82-31.07,11.77-32l6.59,32H402.45"/><path class="cls-8" d="M1082,632.29h-15.08a2.94,2.94,0,0,0-2.21,1.78l-6.21,39a1.18,1.18,0,0,0,1.33,1.33h8a1.17,1.17,0,0,0,1.33-1.33L1070.9,662a2,2,0,0,1,2.22-1.77H1078q15.29,0,17.28-14.63a11.61,11.61,0,0,0-1.77-9.75c-2.66-2.22-6.65-3.55-11.52-3.55m1.77,14.63c-.89,5.32-4.88,5.32-8.87,5.32h-2.66L1074,642c0-.44.44-.88,1.33-.88h.88c2.66,0,5.32,0,6.65,1.77.89.44.89,1.77.89,4"/><path class="cls-9" d="M973.38,632.29H958.31a3,3,0,0,0-2.22,1.78l-6.2,39a1.17,1.17,0,0,0,1.33,1.33h7.09a2.94,2.94,0,0,0,2.22-1.77L962.3,662a2,2,0,0,1,2.22-1.77h4.87q15.3,0,17.29-14.63a11.61,11.61,0,0,0-1.77-9.75c-2.66-2.22-6.21-3.55-11.53-3.55m1.78,14.63c-.89,5.32-4.88,5.32-8.87,5.32h-2.22l1.78-10.2c0-.44.44-.88,1.33-.88h.88c2.66,0,5.32,0,6.65,1.77.45.44.89,1.77.45,4"/><path class="cls-9" d="M1019,646.48H1012c-.45,0-1.33.44-1.33.88l-.45,2.22-.44-.89c-1.77-2.21-4.87-3.1-8.42-3.1-8,0-15.07,6.21-16.4,14.63a13.19,13.19,0,0,0,2.66,11.08c2.21,2.66,5.32,3.55,9.31,3.55a14.15,14.15,0,0,0,10.19-4l-.44,2.21a1.17,1.17,0,0,0,1.33,1.33h6.65a2.93,2.93,0,0,0,2.21-1.77l4-24.82c-.44-.45-1.33-1.33-1.77-1.33m-10.2,14.18a8.56,8.56,0,0,1-8.42,7.09,7.05,7.05,0,0,1-4.87-1.77,9.42,9.42,0,0,1-1.33-5.32,7.91,7.91,0,0,1,12.85-5.32,7.74,7.74,0,0,1,1.77,5.32"/><path class="cls-8" d="M1127.2,646.48h-7.09c-.44,0-1.33.44-1.33.88l-.44,2.22-.45-.89c-1.77-2.21-4.87-3.1-8.42-3.1-8,0-15.07,6.21-16.4,14.63a13.19,13.19,0,0,0,2.66,11.08c2.21,2.66,5.32,3.55,9.31,3.55a14.15,14.15,0,0,0,10.19-4l-.44,2.21a1.17,1.17,0,0,0,1.33,1.33h6.65a2.93,2.93,0,0,0,2.21-1.77l4-24.82c-.44-.45-.88-1.33-1.77-1.33M1117,660.66c-.89,4-4,7.09-8.43,7.09a7.05,7.05,0,0,1-4.87-1.77,9.42,9.42,0,0,1-1.33-5.32,7.91,7.91,0,0,1,12.85-5.32,5.09,5.09,0,0,1,1.78,5.32"/><path class="cls-9" d="M1057.61,646.48h-7.54a2.29,2.29,0,0,0-1.77.88l-9.76,15.08-4.43-14.19a2,2,0,0,0-2.21-1.33h-7.1c-.88,0-1.33.89-1.33,1.77l8,23.5-7.53,10.64c-.45.88,0,2.21.88,2.21h7.1a2.31,2.31,0,0,0,1.77-.88l24.38-35c1.33-1.33.44-2.66-.44-2.66"/><path class="cls-8" d="M1135.62,633.62l-6.2,39.9a1.18,1.18,0,0,0,1.33,1.33h6.2a2.94,2.94,0,0,0,2.22-1.78l6.21-39a1.18,1.18,0,0,0-1.33-1.33H1137c-.44-.45-.88,0-1.33.88"/><path class="cls-9" d="M1069.91,539.09c-3.62-4.13-10.33-6.2-19.63-6.2h-25.84c-1.55,0-3.1,1.55-3.62,3.1l-10.33,67.69a2.36,2.36,0,0,0,2.07,2.58h16l4.14-25.32v1c.51-1.55,2.06-3.1,3.61-3.1h7.76c15,0,26.35-6.2,30-23.25v-1.55h0c.52-6.72-.51-10.85-4.13-15"/><path class="cls-8" d="M1073.53,554.08h0v1.55c-3.62,17.56-15,23.25-30,23.25h-7.75c-1.55,0-3.1,1.55-3.62,3.1L1027,613.5a1.89,1.89,0,0,0,2.07,2.06h13.43c1.56,0,3.11-1,3.11-2.58v-.52l2.58-16v-1c0-1.55,1.55-2.58,3.1-2.58h2.07c12.91,0,23.25-5.17,25.83-20.67,1-6.2.52-11.88-2.58-15.5a5.29,5.29,0,0,0-3.1-2.58"/><path class="cls-10" d="M1069.91,552.53c-.52,0-1-.52-1.55-.52a1.89,1.89,0,0,1-1.55-.52,27.66,27.66,0,0,0-6.72-.51h-20.15a1.91,1.91,0,0,0-1.55.51,2.85,2.85,0,0,0-1.55,2.59l-4.13,26.86v1c.51-1.55,2.06-3.1,3.61-3.1h7.76c15,0,26.35-6.2,30-23.25a1.88,1.88,0,0,1,.52-1.55c-1-.52-1.55-1-2.58-1-1.55-.51-1.55-.51-2.07-.51"/><path class="cls-11" d="M1243.14,499.41h305.62c12,0,21.83,8.17,21.83,18.24V690.89c0,10.06-9.78,18.23-21.83,18.23H1243.14c-12.06,0-21.83-8.17-21.83-18.23V517.65C1221.31,507.58,1231.09,499.41,1243.14,499.41Z"/><path class="cls-12" d="M1302.09,572.35l-28.81,63.76h34.49l4.28-10.17h9.77l4.28,10.17h38v-7.76l3.38,7.76h19.64l3.39-7.93v7.93h79l9.6-9.9,9,9.9,40.55.08-28.9-31.78,28.9-32.06h-39.92l-9.35,9.72-8.71-9.72H1384.7l-7.38,16.45-7.55-16.45h-34.42v7.49l-3.83-7.49Zm6.67,9h16.82l19.11,43.24V581.4h18.42l14.76,31,13.6-31h18.33v45.75h-11.15l-.1-35.85-16.25,35.85h-10L1356,591.3v35.85H1333l-4.34-10.25h-23.5l-4.34,10.24h-12.29Zm111.24,0h45.34l13.87,15,14.31-15h13.87l-21.07,23,21.07,22.73h-14.5L1479,612l-14.39,15.16H1420V581.4Zm-103.06,7.74-7.74,18.27h15.47Zm114.26,1.73v8.36h24.73v9.31H1431.2v9.11h27.74l12.89-13.43-12.34-13.35Z"/><path class="cls-13" d="M1879.09,683.35A28.21,28.21,0,0,1,1851,711.48H1611.89a28.21,28.21,0,0,1-28.12-28.13V528.66a28.2,28.2,0,0,1,28.12-28.12H1851a28.21,28.21,0,0,1,28.13,28.12Z"/><path class="cls-14" d="M1879.09,683.35A28.21,28.21,0,0,1,1851,711.48H1675.18S1841.12,684.76,1879.09,606ZM1717.36,606a21.1,21.1,0,1,0,21.1-21.1A20.72,20.72,0,0,0,1717.36,606Z"/><path d="M1641.42,584.91h7.74V627.1h-7.74Zm42.19,21.1a20.72,20.72,0,0,0,21.1,21.09,24.73,24.73,0,0,0,9.84-2.11v-9.14a12.76,12.76,0,0,1-9.84,4.22c-7.74,0-13.36-5.63-13.36-14.06,0-7.74,5.62-14.07,13.36-14.07,3.51,0,6.33,1.41,9.84,4.22V587c-3.51-1.4-6.33-2.81-9.84-2.81C1692.75,584.91,1683.61,594.76,1683.61,606Zm94.23,6.33-11.26-27.43h-8.43l17.58,42.19h4.21l17.58-42.19h-8.43ZM1801,627.1h22.5v-7h-14.77V608.82h14.07v-7h-14.07v-9.85h14.77v-7H1801V627.1Zm53.44-29.53c0-7.74-4.92-12.66-14.07-12.66h-12V627.1h7.74V610.23h.7l11.25,16.87H1858l-12.65-17.58C1851,608.12,1854.48,603.9,1854.48,597.57Zm-16.17,7h-2.11V591.94h2.11c4.92,0,7.73,2.11,7.73,6.33C1846,601.79,1843.93,604.6,1838.31,604.6Zm-221.5-19.69h-12V627.1h11.25c17.58,0,21.8-14.76,21.8-21.09C1638.61,593.35,1629.47,584.91,1616.81,584.91Zm-2.1,35.16h-2.11V591.94h2.81c10.55,0,14.76,7,14.76,14.07C1630.17,608.82,1629.47,620.07,1614.71,620.07Zm55.54-19c-4.92-2.1-6.32-2.81-6.32-4.92,0-2.81,2.81-4.22,5.62-4.22,2.11,0,4.22.71,6.33,3.52l4.22-5.63a15.45,15.45,0,0,0-12-4.92c-7,0-12.65,4.92-12.65,12,0,5.62,2.81,8.43,9.84,11.25,4.22,1.4,7.74,2.81,7.74,6.32s-2.82,5.63-6.33,5.63a9.14,9.14,0,0,1-8.44-5.63l-4.92,4.93c3.51,5.62,7.73,7.73,14.06,7.73,8.44,0,14.06-5.62,14.06-13.36C1681.5,607.41,1678.69,604.6,1670.25,601.08Z"/><path d="M2001.77,565.64a15.14,15.14,0,0,0-10.22,5.49c-2.25,2.68-4.17,7-3.68,11.12,3.92.34,7.85-2,10.3-5.07A16.62,16.62,0,0,0,2001.77,565.64Zm33.37,8.32V636.4H2045V615.59h13.53c12.42,0,21.34-8.64,21.34-20.82s-8.76-20.81-21-20.81Zm9.88,8.33h11.45c8.52,0,13.53,4.6,13.53,12.48s-5,12.49-13.53,12.49H2045Zm-43.7,2.08c-5.73,0-9.82,3.12-12.49,3.12s-6.77-3.08-11.45-3.08c-5.72,0-11.33,3.59-14.29,8.83-6.07,10.47-1.57,26,4.3,34.49,2.87,4.22,6.35,8.67,11,8.67,4.29-.16,5.74-2.6,10.93-2.6s6.76,2.6,11.45,2.6,7.51-4.29,10.39-8.51a37,37,0,0,0,4.7-9.7,15.28,15.28,0,0,1-9.15-13.92c-.08-8.68,7.08-12.82,7.41-13.07a16,16,0,0,0-12.31-6.83Zm101.25,6.24c-10.36,0-18,5.81-18.3,13.8h8.78c.73-3.8,4.32-6.29,9.24-6.29,6,0,9.33,2.74,9.33,7.76v3.46l-12.2.65c-11.33.67-17.46,5.22-17.46,13.13s6.33,13.29,15.4,13.29c6.13,0,11.81-3,14.39-7.87h.2v7.39h9V605.25C2121,596.34,2113.74,590.61,2102.57,590.61Zm22.07,0,16.68,45.58-.89,2.77c-1.51,4.7-3.95,6.51-8.3,6.51-.75,0-2.16-.08-2.81-.16v7.52a31.42,31.42,0,0,0,3.66.22c9.6,0,14.12-3.61,18.07-14.57l17.3-47.87h-10l-11.6,37h-.21l-11.6-37Zm-13,25,0,3.61c0,5.77-5,9.88-11.61,9.88-5.2,0-8.51-2.44-8.51-6.2s3.19-6.13,9.28-6.49Z"/><path class="cls-15" d="M2331.22,584.34a17.79,17.79,0,0,1,2.57,9.73c0,12.13-10.36,27.88-18.76,38.94h-19.19l-7.69-46,16.8-1.59,4.07,32.74c3.8-6.19,8.49-15.92,8.49-22.56a18.25,18.25,0,0,0-1.59-8.15Z"/><path class="cls-15" d="M2353,604.6c3.09,0,10.87-1.41,10.87-5.84a3,3,0,0,0-3.27-3.18C2357.5,595.58,2353.44,599.29,2353,604.6Zm-.36,8.76c0,5.41,3,7.53,7,7.53,4.34,0,8.49-1.06,13.89-3.81l-2,13.81c-3.8,1.86-9.73,3.1-15.48,3.1-14.59,0-19.81-8.85-19.81-19.92,0-14.33,8.49-29.56,26-29.56,9.64,0,15,5.4,15,12.93C2377.23,609.56,2361.67,613.28,2352.64,613.36Z"/><path class="cls-15" d="M2425.72,595.14a45.51,45.51,0,0,1-.53,6L2420.14,633h-16.36l4.6-29.2c.09-.8.36-2.39.36-3.28,0-2.12-1.33-2.65-2.93-2.65a13.33,13.33,0,0,0-5.66,1.68L2394.94,633h-16.46l7.52-47.7h14.24l.18,3.81a24.58,24.58,0,0,1,14.06-4.61C2422.8,584.51,2425.72,588.76,2425.72,595.14Z"/><path class="cls-15" d="M2474.3,589.73c4.68-3.36,9.11-5.22,15.21-5.22,8.4,0,11.32,4.25,11.32,10.63a45.51,45.51,0,0,1-.53,6l-5,31.86h-16.37l4.69-29.82c.09-.8.27-1.77.27-2.39,0-2.39-1.33-2.92-2.92-2.92a12.48,12.48,0,0,0-5.58,1.68L2470.14,633h-16.36l4.68-29.82c.09-.8.26-1.77.26-2.39,0-2.39-1.32-2.92-2.91-2.92a13.24,13.24,0,0,0-5.66,1.68L2444.93,633h-16.45l7.51-47.7h14.07l.44,4a22.68,22.68,0,0,1,13.62-4.78C2469.25,584.51,2472.61,586.72,2474.3,589.73Z"/><path class="cls-15" d="M2533.39,603.63c0-3.89-1-6.55-3.89-6.55-6.45,0-7.78,11.42-7.78,17.26,0,4.43,1.24,7.17,4.16,7.17C2532,621.51,2533.39,609.47,2533.39,603.63Zm-28.3,10c0-15,8-29.12,26.27-29.12,13.8,0,18.84,8.15,18.84,19.39,0,14.87-7.87,30.27-26.62,30.27C2509.69,634.17,2505.09,625.05,2505.09,613.63Z"/><path class="cls-16" d="M2754.39,602.87h-41.26v15h20a26.73,26.73,0,0,1-6.91,8.89h0a26.26,26.26,0,0,1-41.29-10.57h0a26.33,26.33,0,0,1,2.68-24.26l.5-.65a26.18,26.18,0,0,1,39.35-3.68l12.53-14a45,45,0,0,0-70.68,53.52h0a45,45,0,0,0,71,12.16h0a44.82,44.82,0,0,0,14.06-32.67Z"/><path class="cls-17" d="M2792.93,569.14h-24.25v64h9.14V611.8h14.77c12.69,0,21.79-8.86,21.79-21.34S2805.45,569.14,2792.93,569.14ZM2790,602.66h-12.19V578.28H2790c8.7,0,14.28,4.1,14.28,12.19S2798.76,602.66,2790,602.66Zm45.29-15.24c-10.52,0-18.29,5.8-18.58,13.77h8.92c.74-3.79,4.38-6.27,9.38-6.27,6.05,0,9.48,2.72,9.48,7.74v3.46l-12.39.64c-11.49.67-17.72,5.21-17.72,13.1s6.43,13.26,15.63,13.26c6.22,0,12-3,14.61-7.85h.21l0,7.85H2854V602C2854,593.14,2846.64,587.42,2835.3,587.42Zm9.17,28.54c0,5.76-5.08,9.86-11.79,9.86-5.28,0-8.64-2.44-8.64-6.2s3.24-6.11,9.42-6.47l11-.8Zm30.28,18-17.7-46.52h10.76l12.09,35.41,14.84-35.41h9.34s-29,68.33-29.21,68.91l-9.34.24C2865.7,656.17,2874.75,633.94,2874.75,633.94Z"/><path class="cls-18" d="M3073.07,535.33c-14.81,0-26.22,9.56-26.22,26.22V609c1.24,5.86,7.4,10.18,14.19,10.18,7.71,0,13.26-5.55,13.26-12.34v-24h21v23.74c0,13.26-17,20-29.3,20a31.76,31.76,0,0,1-18.81-5.86v52.43h33.31c11.72,0,25.29-11.11,25.29-25.29V535.33Z"/><path class="cls-19" d="M3046.85,561.55V609c1.24,5.86,7.4,10.18,14.19,10.18,7.71,0,13.26-5.55,13.26-12.34v-24h21v23.74c0,13.26-17,20-29.3,20a31.76,31.76,0,0,1-18.81-5.86v52.43h33.31c11.72,0,25.29-11.11,25.29-25.29V535.33"/><path class="cls-20" d="M3095,582.83v23.74c0,13.26-17,20-29.29,20a31.76,31.76,0,0,1-18.82-5.86v52.43h33.31c11.72,0,25.29-11.11,25.29-25.29"/><path class="cls-21" d="M3189.64,618.6h14.49a7.1,7.1,0,1,0,0-14.19h-14.49Z"/><path class="cls-22" d="M3206,535.33c-15.12,0-26.22,9.56-26.22,25.91v21.59h38.86a10.18,10.18,0,1,1,0,20.35c6.17,0,11.1,4.32,11.1,9.87s-4.62,9.87-11.1,9.87h-39.17v50.27h33.31c11.72,0,25.29-11.11,25.29-25.29V535.33Z"/><path class="cls-23" d="M3179.46,561.55v21.28h38.86a10.18,10.18,0,1,1,0,20.35c6.17,0,11.1,4.32,11.1,9.87s-4.62,9.87-11.1,9.87h-38.86v50.27h33.31c11.72,0,25.29-11.11,25.29-25.29V535.33"/><path class="cls-21" d="M3228.5,593a10.27,10.27,0,0,1-10.18,10.18c6.17,0,11.1,4.32,11.1,9.87s-4.62,9.87-11.1,9.87h-38.86v50.27h33.31c11.72,0,25.29-11.11,25.29-25.29"/><path class="cls-21" d="M3210.92,594.24a7.39,7.39,0,0,0-7.09-7.1h-14.19V601h14.49A6.84,6.84,0,0,0,3210.92,594.24Z"/><path class="cls-24" d="M3139.06,535.33c-15.11,0-26.21,9.56-26.21,25.91v26.52a21.05,21.05,0,0,1,13.26-5.24h35.16v7.4a109.9,109.9,0,0,0-20.36-2.78,15.73,15.73,0,0,0,0,31.46,103.88,103.88,0,0,0,20.36-2.47v6.79h-35.16a18.88,18.88,0,0,1-13.26-5.25v55.52h33.31c11.72,0,25.28-11.11,25.28-25.29V535.33Z"/><path class="cls-25" d="M3112.85,561.55v26.52a21,21,0,0,1,13.26-5.24h35.16v7.4a109.9,109.9,0,0,0-20.36-2.78,15.73,15.73,0,0,0,0,31.46,103.88,103.88,0,0,0,20.36-2.47v6.48h-35.16a18.88,18.88,0,0,1-13.26-5.25v55.52h33.31c11.72,0,25.28-11.11,25.28-25.29V535.33"/><path class="cls-26" d="M3161.27,582.83v7.4a109.9,109.9,0,0,0-20.36-2.78,15.73,15.73,0,0,0,0,31.46,103.88,103.88,0,0,0,20.36-2.47v6.48h-35.16a18.88,18.88,0,0,1-13.26-5.25v55.52h33.31c11.72,0,25.28-11.11,25.28-25.29"/></svg>