<svg id="Layer_1" data-name="Layer 1" xmlns="http://www.w3.org/2000/svg" viewBox="0 0 1009 306"><defs><style>.cls-1{fill:#fff;}</style></defs><path d="M279.51,48.41v5q0,67.91-.08,135.74a15.68,15.68,0,0,1-2.41,8.33c-23.71,37.72-57.73,61.86-99.83,75.17a8.88,8.88,0,0,1-5,0c-42.1-13.23-76-37.54-99.83-75.17A17.73,17.73,0,0,1,70,189.14q-.12-67.92-.08-135.74v-5ZM76.5,192.32c23.37,36.34,55.41,60.48,96,73.54a8.33,8.33,0,0,0,5-.17c38.23-12.46,69.07-34.8,92-68.05,2.23-3.26,2.41-5.5-.09-8.93Q231.36,136,193.6,83c-6.36-8.85-12.72-17.62-19.24-26.72C141.62,101.85,109.15,147,76.5,192.32Z"/><path class="cls-1" d="M76.5,192.32c32.65-45.37,65.12-90.56,97.86-136,6.61,9.1,13,17.95,19.24,26.72,25.26,35.22,50.34,70.53,75.77,105.67,2.5,3.43,2.32,5.67.09,8.93-22.94,33.25-53.78,55.67-92,68.05a9,9,0,0,1-5,.17C131.91,252.8,99.87,228.66,76.5,192.32Z"/><path d="M325.6,138.62V86h19.95q8.2,0,13.53,3.37a20.9,20.9,0,0,1,8,9.2A31.91,31.91,0,0,1,369.75,112a32.49,32.49,0,0,1-2.82,14.11,20.73,20.73,0,0,1-8.19,9.13,26.34,26.34,0,0,1-13.19,3.36Zm10-44.07v35.64h9.74a14.59,14.59,0,0,0,7.46-1.81,11.77,11.77,0,0,0,4.84-5.84,27.43,27.43,0,0,0,1.7-10.52,28,28,0,0,0-1.4-9.39,11.94,11.94,0,0,0-4.36-6,12.94,12.94,0,0,0-7.62-2.09Z"/><path d="M394.42,139.55a22.13,22.13,0,0,1-10.59-2.4,16.92,16.92,0,0,1-7-6.84,21,21,0,0,1-2.48-10.4,22,22,0,0,1,2.52-10.48,16.9,16.9,0,0,1,7-6.88,21.94,21.94,0,0,1,10.55-2.43,22.19,22.19,0,0,1,10.63,2.39,17.06,17.06,0,0,1,6.92,6.81,21,21,0,0,1,2.48,10.44A21.2,21.2,0,0,1,412,130.19a17.12,17.12,0,0,1-7,6.92A21.8,21.8,0,0,1,394.42,139.55Zm.08-8.58a8.53,8.53,0,0,0,5-1.47,10.19,10.19,0,0,0,3.37-4,13,13,0,0,0,1.23-5.72,12.72,12.72,0,0,0-1.23-5.73,9.87,9.87,0,0,0-3.4-3.9,9,9,0,0,0-5-1.43,8.78,8.78,0,0,0-5,1.47,10,10,0,0,0-3.44,4,13,13,0,0,0-1.24,5.76,12.68,12.68,0,0,0,1.24,5.72,9.77,9.77,0,0,0,3.48,3.91A9.19,9.19,0,0,0,394.5,131Z"/><path d="M420.55,138.62v-37.5h6.58l1.7,3.94a38.8,38.8,0,0,1,4.87-2.82,25.19,25.19,0,0,1,4.79-1.78,17.32,17.32,0,0,1,4-.58,13.52,13.52,0,0,1,7.12,1.63,9.15,9.15,0,0,1,3.79,4.68,20.86,20.86,0,0,1,1.16,7.38v25.05H444.52v-23a14.78,14.78,0,0,0-.46-4.06,4.83,4.83,0,0,0-1.47-2.43,4,4,0,0,0-2.71-.86,8.62,8.62,0,0,0-3.4.7,15.45,15.45,0,0,0-3.09,1.78c-1,.72-1.91,1.39-2.78,2v25.9Zm32.17-33.56a39.53,39.53,0,0,1,4.87-2.82,25.2,25.2,0,0,1,4.76-1.78,17,17,0,0,1,4.06-.58,13.48,13.48,0,0,1,7.11,1.63,9.15,9.15,0,0,1,3.79,4.68,20.86,20.86,0,0,1,1.16,7.38v25.05H468.42v-23a13.53,13.53,0,0,0-.51-4.06,5.12,5.12,0,0,0-1.47-2.43,3.87,3.87,0,0,0-2.66-.86,8.67,8.67,0,0,0-3.41.7,15.45,15.45,0,0,0-3.09,1.78c-1,.72-1.91,1.39-2.78,2Z"/><path d="M487.67,94.2A5.61,5.61,0,0,1,486,90.14a5.47,5.47,0,0,1,1.63-4,5.37,5.37,0,0,1,3.94-1.62,5.5,5.5,0,0,1,4,1.62,5.39,5.39,0,0,1,1.67,4,5.61,5.61,0,0,1-1.63,4.06,5.28,5.28,0,0,1-3.94,1.66A5.38,5.38,0,0,1,487.67,94.2Zm-1,44.42v-37.5h10.13v37.5Z"/><path d="M505.22,138.62v-37.5h6.57l1.7,3.94a35.64,35.64,0,0,1,5-2.82,26.91,26.91,0,0,1,5-1.78,19.63,19.63,0,0,1,4.44-.58q5.1,0,7.85,2a10.7,10.7,0,0,1,3.87,5.46,25.21,25.21,0,0,1,1.12,7.77v23.5h-10v-23a8.72,8.72,0,0,0-1.47-5.49,4.78,4.78,0,0,0-3.95-1.86,10.64,10.64,0,0,0-3.71.7,16,16,0,0,0-3.44,1.78c-1.06.72-2,1.39-2.9,2v25.9Z"/><path d="M550.06,94.2a5.6,5.6,0,0,1-1.62-4.06,5.46,5.46,0,0,1,1.62-4,5.4,5.4,0,0,1,4-1.62,5.51,5.51,0,0,1,4,1.62,5.38,5.38,0,0,1,1.66,4A5.6,5.6,0,0,1,558,94.2a5.3,5.3,0,0,1-3.95,1.66A5.41,5.41,0,0,1,550.06,94.2Zm-1,44.42v-37.5h10.13v37.5Z"/><path d="M598.24,135.68a15,15,0,0,1-4.22,2.21,28.83,28.83,0,0,1-4.83,1.27,24.42,24.42,0,0,1-3.94.39,22,22,0,0,1-10.52-2.4,16.92,16.92,0,0,1-7-6.84,21,21,0,0,1-2.47-10.4,22.14,22.14,0,0,1,2.51-10.48,17,17,0,0,1,6.92-6.88,21.74,21.74,0,0,1,10.52-2.43,20.56,20.56,0,0,1,3.94.46,36.42,36.42,0,0,1,4.75,1.31,17.16,17.16,0,0,1,4.3,2.17l-2.87,7.19a34.11,34.11,0,0,0-5.06-1.89,18.45,18.45,0,0,0-5-.66,8.81,8.81,0,0,0-5,1.47,10.11,10.11,0,0,0-3.44,4,13,13,0,0,0-1.23,5.76,12.67,12.67,0,0,0,1.23,5.72,9.77,9.77,0,0,0,3.48,3.91,9.19,9.19,0,0,0,5,1.43,18.27,18.27,0,0,0,4.87-.66,34.37,34.37,0,0,0,5.1-1.89Z"/><path d="M605.12,103.52a14,14,0,0,1,4-1.74,49.49,49.49,0,0,1,5.22-1.2,25.8,25.8,0,0,1,4.21-.46,18.83,18.83,0,0,1,8.2,1.77,15.11,15.11,0,0,1,5.91,4.91,12.14,12.14,0,0,1,2.2,7.16v24.66h-6.57l-1.7-4a19.52,19.52,0,0,1-4.6,3.56,10.76,10.76,0,0,1-5.3,1.39c-4.58,0-8-1.12-10.2-3.36a12,12,0,0,1-3.33-8.78q0-5.8,4-8.85t10.28-3.13h7.35v-.08a6.19,6.19,0,0,0-1.67-4.37,5.88,5.88,0,0,0-4.37-1.59,23.5,23.5,0,0,0-5.72.78,31.45,31.45,0,0,0-5.18,1.7Zm7.34,25.94a4.67,4.67,0,0,0,1.66,1.55,5,5,0,0,0,2.44.58,10.41,10.41,0,0,0,4.21-.93,13.93,13.93,0,0,0,4.06-2.79v-5.72h-7.57a5,5,0,0,0-4,1.63,5.47,5.47,0,0,0-1.39,3.63A3.76,3.76,0,0,0,612.46,129.46Z"/><path d="M643.08,138.62v-37.5h6.57l1.7,3.94a35.64,35.64,0,0,1,5-2.82,26.91,26.91,0,0,1,5-1.78,19.63,19.63,0,0,1,4.44-.58q5.1,0,7.85,2a10.7,10.7,0,0,1,3.87,5.46,25.21,25.21,0,0,1,1.12,7.77v23.5h-10v-23a8.72,8.72,0,0,0-1.47-5.49,4.78,4.78,0,0,0-4-1.86,10.64,10.64,0,0,0-3.71.7,16,16,0,0,0-3.44,1.78c-1.06.72-2,1.39-2.9,2v25.9Z"/><path d="M705.94,127c1.08.52,2.36,1.06,3.83,1.63a35.89,35.89,0,0,0,4.64,1.43,20.5,20.5,0,0,0,4.67.58,18.9,18.9,0,0,0,5.26-.62,6.14,6.14,0,0,0,3.13-1.89,4.8,4.8,0,0,0,1-3.14,4.25,4.25,0,0,0-1.51-3.17,22.33,22.33,0,0,0-3.83-2.74l-4.71-2.75q-2.79-1.69-5.53-3.48a40.26,40.26,0,0,1-5.07-3.86,18,18,0,0,1-3.71-4.6,11.21,11.21,0,0,1-1.39-5.53,12.59,12.59,0,0,1,2.13-7.19,14.47,14.47,0,0,1,6.18-5,23.54,23.54,0,0,1,9.78-1.85A26.38,26.38,0,0,1,728.75,86a50.91,50.91,0,0,1,7,2.71l-3.4,8c-1-.51-2.14-1-3.33-1.51a27,27,0,0,0-3.75-1.23,16.75,16.75,0,0,0-4.21-.51,11,11,0,0,0-5.65,1.32,4.36,4.36,0,0,0-2.24,4,4.78,4.78,0,0,0,1.39,3.4,15.22,15.22,0,0,0,3.71,2.75c1.55.85,3.15,1.81,4.8,2.9l5.6,3.28a36.68,36.68,0,0,1,5.15,3.64,16.39,16.39,0,0,1,3.71,4.44,11.79,11.79,0,0,1,1.39,5.88,12.25,12.25,0,0,1-2.32,7.38,16,16,0,0,1-6.65,5.14,26.15,26.15,0,0,1-10.67,1.94,19.77,19.77,0,0,1-3.75-.43c-1.42-.28-2.87-.63-4.37-1a39.16,39.16,0,0,1-4.17-1.39,18.86,18.86,0,0,1-3.25-1.63Z"/><path d="M746.07,94.2a5.6,5.6,0,0,1-1.62-4.06,5.46,5.46,0,0,1,1.62-4A5.37,5.37,0,0,1,750,84.5a5.52,5.52,0,0,1,4,1.62,5.42,5.42,0,0,1,1.66,4A5.57,5.57,0,0,1,754,94.2a5.28,5.28,0,0,1-3.94,1.66A5.38,5.38,0,0,1,746.07,94.2Zm-1,44.42v-37.5h10.13v37.5Z"/><path d="M764.47,129c1.24.46,2.42.89,3.56,1.27a23.72,23.72,0,0,0,3.28.89,15.33,15.33,0,0,0,3,.31,10.78,10.78,0,0,0,2.71-.35,7.18,7.18,0,0,0,2.43-1.08,2.16,2.16,0,0,0,1.05-1.82,2.93,2.93,0,0,0-.78-2,7.9,7.9,0,0,0-2.2-1.66,18.08,18.08,0,0,0-3.6-1.39,46,46,0,0,1-5.76-2.51,15.73,15.73,0,0,1-4.79-3.75,8,8,0,0,1-1.89-5.34,10.07,10.07,0,0,1,3.9-8.39q3.9-3.06,10.71-3a19.94,19.94,0,0,1,3.9.46,35.94,35.94,0,0,1,4.68,1.31,17.4,17.4,0,0,1,4.26,2.17l-3,6.73a45.59,45.59,0,0,0-5-1.86,17,17,0,0,0-4.87-.7,5.19,5.19,0,0,0-3.21,1,2.82,2.82,0,0,0-1.27,2.28c0,.78.58,1.46,1.89,2s2.62,1.12,3.91,1.59a27.43,27.43,0,0,1,6.07,2.78,17.85,17.85,0,0,1,4.79,4.21,9.14,9.14,0,0,1,1.89,5.76,10.24,10.24,0,0,1-4,8.59q-4,3.09-11.63,3.09a25.5,25.5,0,0,1-4-.39,26.52,26.52,0,0,1-4.83-1.27,16.4,16.4,0,0,1-4.21-2.21Z"/><path d="M817.67,108.85h-9.9v16a7.74,7.74,0,0,0,1.39,4.79,4.81,4.81,0,0,0,4.1,1.86,9.18,9.18,0,0,0,2-.23,12.83,12.83,0,0,0,2.09-.7l2.94,7.27a8.24,8.24,0,0,1-2.09,1.12,23.12,23.12,0,0,1-2.78.85,12,12,0,0,1-2.71.35,18.09,18.09,0,0,1-7.93-1.59,12,12,0,0,1-5.14-4.6,13.82,13.82,0,0,1-1.85-7.34V108.85h-5.11l.08-7.57h5v-9l10-1.78v10.75h6.81Z"/><path d="M834.06,122.85a11.26,11.26,0,0,0,1.7,4.29,8,8,0,0,0,3.56,2.82,15.27,15.27,0,0,0,6,1,17.1,17.1,0,0,0,5.87-.93,29.58,29.58,0,0,0,5-2.4l2.94,7.27a21.39,21.39,0,0,1-3.75,2.44,20.43,20.43,0,0,1-4.56,1.62,25.61,25.61,0,0,1-5.76.58,27.08,27.08,0,0,1-12.1-2.4,16,16,0,0,1-7.23-6.84,21.56,21.56,0,0,1-2.4-10.4,22.71,22.71,0,0,1,2.28-10.48,16.42,16.42,0,0,1,6.53-6.88,20,20,0,0,1,10.06-2.43,16.47,16.47,0,0,1,9.66,2.66,15.85,15.85,0,0,1,5.61,7.16,25.93,25.93,0,0,1,1.81,9.82v3.09Zm15.77-6.73a11,11,0,0,0-1.54-4.17,7.12,7.12,0,0,0-2.67-2.44,7.82,7.82,0,0,0-3.6-.81,7.65,7.65,0,0,0-3.63.85,7.35,7.35,0,0,0-2.71,2.47,11.07,11.07,0,0,0-1.54,4.1Z"/><path d="M865.53,138.62v-37.5h5.26l3.32,6.26a29.86,29.86,0,0,1,3.79-2.82,31.71,31.71,0,0,1,4.6-2.43,11.23,11.23,0,0,1,4.37-1l2,8a11.61,11.61,0,0,0-4,.85,29,29,0,0,0-4.68,2.32,31.38,31.38,0,0,0-4.6,3.4v22.89Z"/><path d="M894.76,129c1.23.46,2.42.89,3.55,1.27a23.84,23.84,0,0,0,3.29.89,15.25,15.25,0,0,0,3,.31,10.77,10.77,0,0,0,2.7-.35,7.23,7.23,0,0,0,2.44-1.08,2.17,2.17,0,0,0,1-1.82,3,3,0,0,0-.77-2,8,8,0,0,0-2.21-1.66,18.21,18.21,0,0,0-3.59-1.39,44.72,44.72,0,0,1-5.76-2.51,15.9,15.9,0,0,1-4.8-3.75,8,8,0,0,1-1.89-5.34,10.07,10.07,0,0,1,3.9-8.39q3.92-3.06,10.71-3a20,20,0,0,1,3.91.46,35.94,35.94,0,0,1,4.68,1.31,17.51,17.51,0,0,1,4.25,2.17l-3,6.73a45.48,45.48,0,0,0-5-1.86,17,17,0,0,0-4.87-.7,5.19,5.19,0,0,0-3.21,1,2.83,2.83,0,0,0-1.28,2.28c0,.78.58,1.46,1.9,2s2.61,1.12,3.9,1.59a27.23,27.23,0,0,1,6.07,2.78,17.85,17.85,0,0,1,4.79,4.21,9.09,9.09,0,0,1,1.9,5.76,10.27,10.27,0,0,1-4,8.59q-4,3.09-11.64,3.09a25.39,25.39,0,0,1-3.94-.39,26.84,26.84,0,0,1-4.84-1.27,16.4,16.4,0,0,1-4.21-2.21Z"/><path d="M324.29,173.24a5.6,5.6,0,0,1-1.62-4.06,5.46,5.46,0,0,1,1.62-4,5.37,5.37,0,0,1,3.94-1.62,5.52,5.52,0,0,1,4,1.62,5.42,5.42,0,0,1,1.66,4,5.57,5.57,0,0,1-1.63,4.06,5.28,5.28,0,0,1-3.94,1.66A5.38,5.38,0,0,1,324.29,173.24Zm-1,44.42v-37.5h10.12v37.5Z"/><path d="M341.84,217.66v-37.5h6.57l1.71,3.94a35,35,0,0,1,5-2.82,26.91,26.91,0,0,1,5-1.78,19.63,19.63,0,0,1,4.44-.58c3.41,0,6,.67,7.85,2a10.68,10.68,0,0,1,3.87,5.45,25,25,0,0,1,1.12,7.78v23.5H367.36v-23a8.72,8.72,0,0,0-1.47-5.49,4.77,4.77,0,0,0-3.94-1.86,10.65,10.65,0,0,0-3.72.7,16.24,16.24,0,0,0-3.44,1.78c-1.05.72-2,1.39-2.9,2v25.9Z"/><path d="M442.28,217.66H401.14L400,209.85,430,173h-26.6l-1.24-7.89H440.5l1.16,7.89-30.85,36.88h30.31Z"/><path d="M448.77,173.24a5.6,5.6,0,0,1-1.62-4.06,5.46,5.46,0,0,1,1.62-4,5.4,5.4,0,0,1,4-1.62,5.51,5.51,0,0,1,4,1.62,5.38,5.38,0,0,1,1.66,4,5.6,5.6,0,0,1-1.62,4.06,5.3,5.3,0,0,1-3.95,1.66A5.41,5.41,0,0,1,448.77,173.24Zm-1,44.42v-37.5H457.9v37.5Z"/><path d="M466.33,217.66v-37.5h6.57l1.7,3.94a39.53,39.53,0,0,1,4.87-2.82,25.19,25.19,0,0,1,4.79-1.78,17.32,17.32,0,0,1,4-.58,13.43,13.43,0,0,1,7.12,1.63,9.17,9.17,0,0,1,3.79,4.67,21,21,0,0,1,1.16,7.39v25H490.29v-23a14.78,14.78,0,0,0-.46-4.06,4.91,4.91,0,0,0-1.47-2.44,4.08,4.08,0,0,0-2.7-.85,8.67,8.67,0,0,0-3.41.7,15.45,15.45,0,0,0-3.09,1.78c-1,.72-1.91,1.39-2.78,2v25.9Zm32.16-33.56a39.53,39.53,0,0,1,4.87-2.82,25.46,25.46,0,0,1,4.76-1.78,17,17,0,0,1,4.06-.58,13.37,13.37,0,0,1,7.11,1.63,9.12,9.12,0,0,1,3.79,4.67,21,21,0,0,1,1.16,7.39v25h-10v-23a13.53,13.53,0,0,0-.51-4.06,5.21,5.21,0,0,0-1.47-2.44,3.91,3.91,0,0,0-2.66-.85,8.59,8.59,0,0,0-3.4.7,15.25,15.25,0,0,0-3.1,1.78c-1,.72-1.91,1.39-2.78,2Z"/><path d="M533.21,217.66V163.92l10-.85v48.17l-4.87,6.42Zm3.71-31.55a22.28,22.28,0,0,1,3.83-3.71,16.16,16.16,0,0,1,4.44-2.39,14.84,14.84,0,0,1,5-.85,20.19,20.19,0,0,1,10.09,2.39,16.22,16.22,0,0,1,6.49,6.81,22.23,22.23,0,0,1,2.28,10.36,22.51,22.51,0,0,1-2.28,10.4,16.92,16.92,0,0,1-6.53,7,20.25,20.25,0,0,1-10.44,2.51,13.45,13.45,0,0,1-4.83-1,20,20,0,0,1-4.76-2.62,13.78,13.78,0,0,1-3.32-3.41l2.86-6.8a15.92,15.92,0,0,0,5,4.13,11.65,11.65,0,0,0,5,1.13,8,8,0,0,0,4.87-1.47,8.64,8.64,0,0,0,3-4.06,16.49,16.49,0,0,0,1-5.76,14.86,14.86,0,0,0-1-5.69,8.89,8.89,0,0,0-2.94-3.86,7.92,7.92,0,0,0-4.87-1.43,10.53,10.53,0,0,0-5,1.23,25.47,25.47,0,0,0-5,3.72Z"/><path d="M576.2,182.56a14.12,14.12,0,0,1,4-1.74,49.49,49.49,0,0,1,5.22-1.2,25.91,25.91,0,0,1,4.21-.46,18.83,18.83,0,0,1,8.2,1.77,15.11,15.11,0,0,1,5.91,4.91A12.15,12.15,0,0,1,606,193v24.66h-6.58l-1.7-4a19.52,19.52,0,0,1-4.6,3.56,10.84,10.84,0,0,1-5.3,1.39c-4.58,0-8-1.12-10.2-3.36a12,12,0,0,1-3.33-8.78q0-5.8,4-8.85t10.28-3.14h7.35v-.07a6.15,6.15,0,0,0-1.67-4.37,5.87,5.87,0,0,0-4.36-1.59,23.51,23.51,0,0,0-5.73.78,31.45,31.45,0,0,0-5.18,1.7Zm7.34,25.94a4.59,4.59,0,0,0,1.67,1.54,4.85,4.85,0,0,0,2.43.58,10.4,10.4,0,0,0,4.21-.92,13.93,13.93,0,0,0,4.06-2.79v-5.72h-7.57a5,5,0,0,0-4,1.63,5.43,5.43,0,0,0-1.4,3.63A3.78,3.78,0,0,0,583.54,208.5Z"/><path d="M614.93,217.66V163.92l10-.85v48.17L620,217.66Zm3.72-31.55a22.6,22.6,0,0,1,3.82-3.71,16.36,16.36,0,0,1,4.45-2.39,14.83,14.83,0,0,1,5-.85,20.23,20.23,0,0,1,10.1,2.39,16.28,16.28,0,0,1,6.49,6.81,22.23,22.23,0,0,1,2.28,10.36,22.51,22.51,0,0,1-2.28,10.4,16.92,16.92,0,0,1-6.53,7,20.28,20.28,0,0,1-10.44,2.51,13.37,13.37,0,0,1-4.83-1A19.81,19.81,0,0,1,622,215a13.78,13.78,0,0,1-3.32-3.41l2.86-6.8a15.9,15.9,0,0,0,5,4.13,11.7,11.7,0,0,0,5,1.13,8,8,0,0,0,4.87-1.47,8.64,8.64,0,0,0,3-4.06,16.49,16.49,0,0,0,1-5.76,14.87,14.87,0,0,0-1-5.69,8.89,8.89,0,0,0-2.94-3.86,7.92,7.92,0,0,0-4.87-1.43,10.57,10.57,0,0,0-5,1.23,25.73,25.73,0,0,0-5,3.72Z"/><path d="M687.07,217.66,680,194.77l-6.73,22.89h-8.5l-11.21-35.95,10-2.94L669.21,202l5.41-21.88h11.06l5.8,21.88,5.34-21.88h10.59l-12.06,37.5Z"/><path d="M720.79,201.89a11,11,0,0,0,1.7,4.29A8,8,0,0,0,726,209a15.34,15.34,0,0,0,6,1,17.11,17.11,0,0,0,5.88-.93,29.94,29.94,0,0,0,5-2.4l2.93,7.27a20.67,20.67,0,0,1-3.75,2.44A20.08,20.08,0,0,1,737.6,218a25.49,25.49,0,0,1-5.76.58,27.11,27.11,0,0,1-12.1-2.4,16.1,16.1,0,0,1-7.23-6.84,21.56,21.56,0,0,1-2.4-10.4,22.71,22.71,0,0,1,2.29-10.48,16.31,16.31,0,0,1,6.53-6.88A19.92,19.92,0,0,1,729,179.16a16.41,16.41,0,0,1,9.67,2.66,15.85,15.85,0,0,1,5.6,7.15,26,26,0,0,1,1.82,9.82v3.1Zm15.77-6.73A11,11,0,0,0,735,191a7,7,0,0,0-2.67-2.44,7.75,7.75,0,0,0-3.59-.81,7.65,7.65,0,0,0-3.63.85,7.27,7.27,0,0,0-2.71,2.47,11.08,11.08,0,0,0-1.55,4.1Z"/></svg>