<?xml version="1.0" encoding="utf-8"?>
<!-- Generator: Adobe Illustrator 21.0.2, SVG Export Plug-In . SVG Version: 6.00 Build 0)  -->
<svg version="1.1" id="Layer_1" xmlns="http://www.w3.org/2000/svg" xmlns:xlink="http://www.w3.org/1999/xlink" x="0px" y="0px"
	 viewBox="0 0 244 261.4" style="enable-background:new 0 0 244 261.4;" xml:space="preserve">
<style type="text/css">
	.st0{fill:#FFFFFF;}
</style>
<g>
	<path d="M244,0c0,2.2,0,4,0,5.8c0,52.7,0,105.3-0.1,158c0,3.3-1,7-2.8,9.7c-27.6,43.9-67.2,72-116.2,87.5c-1.8,0.6-4,0.5-5.8,0
		c-49-15.4-88.5-43.7-116.2-87.5c-1.7-2.7-2.7-6.5-2.8-9.7C0,111.1,0,58.5,0,5.8C0,4,0,2.2,0,0C81.3,0,162.4,0,244,0z M7.7,167.5
		c27.2,42.3,64.5,70.4,111.7,85.6c1.7,0.6,4,0.4,5.8-0.2c44.5-14.5,80.4-40.5,107.1-79.2c2.6-3.8,2.8-6.4-0.1-10.4
		c-29.5-40.9-58.8-81.9-88.2-123c-7.4-10.3-14.8-20.5-22.4-31.1C83.5,62.2,45.7,114.7,7.7,167.5z"/>
	<path class="st0" d="M7.7,167.5c38-52.8,75.8-105.4,113.9-158.3c7.7,10.6,15.1,20.9,22.4,31.1c29.4,41,58.6,82.1,88.2,123
		c2.9,4,2.7,6.6,0.1,10.4c-26.7,38.7-62.6,64.8-107.1,79.2c-1.8,0.6-4,0.7-5.8,0.2C72.2,237.9,34.9,209.8,7.7,167.5z"/>
</g>
</svg>
