<svg id="Layer_1" data-name="Layer 1" xmlns="http://www.w3.org/2000/svg" viewBox="0 0 1093 261.4"><defs><style>.cls-1{fill:#fff;}</style></defs><path d="M244,0V5.8q0,79.05-.1,158a18.28,18.28,0,0,1-2.8,9.7c-27.6,43.9-67.2,72-116.2,87.5a10.4,10.4,0,0,1-5.8,0c-49-15.4-88.5-43.7-116.2-87.5a20.59,20.59,0,0,1-2.8-9.7Q-.05,84.75,0,5.8V0ZM7.7,167.5c27.2,42.3,64.5,70.4,111.7,85.6a9.61,9.61,0,0,0,5.8-.2c44.5-14.5,80.4-40.5,107.1-79.2,2.6-3.8,2.8-6.4-.1-10.4Q188,102,144,40.3C136.6,30,129.2,19.8,121.6,9.2,83.5,62.2,45.7,114.7,7.7,167.5Z"/><path class="cls-1" d="M7.7,167.5C45.7,114.7,83.5,62.1,121.6,9.2c7.7,10.6,15.1,20.9,22.4,31.1,29.4,41,58.6,82.1,88.2,123,2.9,4,2.7,6.6.1,10.4-26.7,38.7-62.6,64.8-107.1,79.2a10.42,10.42,0,0,1-5.8.2C72.2,237.9,34.9,209.8,7.7,167.5Z"/><path d="M297.65,105V43.8h23.22q9.54,0,15.75,3.91a24.36,24.36,0,0,1,9.31,10.71A37.26,37.26,0,0,1,349,74a37.78,37.78,0,0,1-3.29,16.42,24,24,0,0,1-9.54,10.62Q330,104.83,320.87,105Zm11.61-51.3V95.19H320.6a17,17,0,0,0,8.69-2.11,13.72,13.72,0,0,0,5.62-6.8q2-4.68,2-12.24a32.76,32.76,0,0,0-1.62-10.94,14,14,0,0,0-5.09-7,15.05,15.05,0,0,0-8.86-2.43Z"/><path d="M377.75,106.08a25.8,25.8,0,0,1-12.33-2.79,19.72,19.72,0,0,1-8.1-8,24.51,24.51,0,0,1-2.88-12.11A25.75,25.75,0,0,1,357.36,71a19.64,19.64,0,0,1,8.1-8,25.43,25.43,0,0,1,12.29-2.84A25.71,25.71,0,0,1,390.12,63a19.89,19.89,0,0,1,8.06,7.92A24.43,24.43,0,0,1,401.06,83a24.75,24.75,0,0,1-2.88,12.15,20,20,0,0,1-8.1,8.06A25.57,25.57,0,0,1,377.75,106.08Zm.09-10a9.94,9.94,0,0,0,5.8-1.71,11.82,11.82,0,0,0,3.92-4.68A15.07,15.07,0,0,0,389,83a14.7,14.7,0,0,0-1.44-6.66,11.55,11.55,0,0,0-4-4.55,10.44,10.44,0,0,0-5.85-1.66,10.24,10.24,0,0,0-5.81,1.71,11.61,11.61,0,0,0-4,4.64,15,15,0,0,0-1.44,6.7,14.7,14.7,0,0,0,1.44,6.66A11.15,11.15,0,0,0,372,94.42,10.57,10.57,0,0,0,377.84,96.09Z"/><path d="M408.17,105V61.35h7.65l2,4.59a46.73,46.73,0,0,1,5.67-3.29,30.35,30.35,0,0,1,5.58-2.07,19.67,19.67,0,0,1,4.68-.67A15.67,15.67,0,0,1,442,61.8a10.63,10.63,0,0,1,4.41,5.45,24.24,24.24,0,0,1,1.35,8.59V105h-11.7V78.18a17.16,17.16,0,0,0-.54-4.72,5.71,5.71,0,0,0-1.71-2.84,4.72,4.72,0,0,0-3.15-1,10,10,0,0,0-4,.81,18,18,0,0,0-3.6,2.07q-1.71,1.26-3.24,2.34V105Zm37.44-39.06a46.73,46.73,0,0,1,5.67-3.29,30.75,30.75,0,0,1,5.53-2.07,19.44,19.44,0,0,1,4.73-.67,15.67,15.67,0,0,1,8.28,1.89,10.63,10.63,0,0,1,4.41,5.45,24.24,24.24,0,0,1,1.35,8.59V105h-11.7V78.18a15.89,15.89,0,0,0-.59-4.72,6.17,6.17,0,0,0-1.71-2.84,4.53,4.53,0,0,0-3.1-1,10,10,0,0,0-4,.81,18,18,0,0,0-3.6,2.07q-1.71,1.26-3.24,2.34Z"/><path d="M486.29,53.29a6.48,6.48,0,0,1-1.89-4.72,6.36,6.36,0,0,1,1.89-4.68A6.25,6.25,0,0,1,490.88,42a6.39,6.39,0,0,1,4.63,1.89,6.28,6.28,0,0,1,1.94,4.68,6.48,6.48,0,0,1-1.89,4.72A6.14,6.14,0,0,1,491,55.23,6.25,6.25,0,0,1,486.29,53.29ZM485.12,105V61.35h11.79V105Z"/><path d="M506.72,105V61.35h7.65l2,4.59a42.13,42.13,0,0,1,5.8-3.29A32.65,32.65,0,0,1,528,60.58a22.52,22.52,0,0,1,5.18-.67q5.94,0,9.13,2.34a12.4,12.4,0,0,1,4.5,6.35,29.09,29.09,0,0,1,1.31,9V105h-11.7V78.18q0-4.23-1.71-6.39a5.55,5.55,0,0,0-4.59-2.16,12.23,12.23,0,0,0-4.32.81,18.77,18.77,0,0,0-4,2.07c-1.23.84-2.35,1.62-3.37,2.34V105Z"/><path d="M558.92,53.29A6.48,6.48,0,0,1,557,48.57a6.36,6.36,0,0,1,1.89-4.68A6.25,6.25,0,0,1,563.51,42a6.39,6.39,0,0,1,4.63,1.89,6.28,6.28,0,0,1,1.94,4.68,6.48,6.48,0,0,1-1.89,4.72,6.14,6.14,0,0,1-4.59,1.94A6.25,6.25,0,0,1,558.92,53.29ZM557.75,105V61.35h11.79V105Z"/><path d="M615,101.58a17.51,17.51,0,0,1-4.9,2.57,33.35,33.35,0,0,1-5.63,1.48,28.64,28.64,0,0,1-4.59.45,25.59,25.59,0,0,1-12.24-2.79,19.72,19.72,0,0,1-8.1-8,24.51,24.51,0,0,1-2.88-12.11A25.76,25.76,0,0,1,579.57,71a19.69,19.69,0,0,1,8-8,25.15,25.15,0,0,1,12.24-2.84,24,24,0,0,1,4.59.54A41.55,41.55,0,0,1,610,62.25a20,20,0,0,1,5,2.52l-3.33,8.37a40.25,40.25,0,0,0-5.89-2.2,21.57,21.57,0,0,0-5.81-.77,10.21,10.21,0,0,0-5.8,1.71,11.63,11.63,0,0,0-4,4.64,15,15,0,0,0-1.44,6.7,14.7,14.7,0,0,0,1.44,6.66,11.15,11.15,0,0,0,4.05,4.54A10.57,10.57,0,0,0,600,96.09a21.34,21.34,0,0,0,5.67-.76,39.59,39.59,0,0,0,5.94-2.21Z"/><path d="M623,64.14a16.41,16.41,0,0,1,4.68-2,57.75,57.75,0,0,1,6.08-1.4,30.32,30.32,0,0,1,4.9-.54,21.79,21.79,0,0,1,9.54,2.07A17.53,17.53,0,0,1,655.08,68a14.14,14.14,0,0,1,2.56,8.33V105H650l-2-4.68a22.67,22.67,0,0,1-5.35,4.14,12.56,12.56,0,0,1-6.17,1.62q-8,0-11.88-3.91A13.92,13.92,0,0,1,620.74,92q0-6.75,4.59-10.3t12-3.65h8.55v-.09a7.15,7.15,0,0,0-1.93-5.08A6.89,6.89,0,0,0,638.83,71a27.59,27.59,0,0,0-6.66.9,37.38,37.38,0,0,0-6,2Zm8.55,30.19a5.17,5.17,0,0,0,1.94,1.8,5.73,5.73,0,0,0,2.83.68,12.21,12.21,0,0,0,4.91-1.08,16.21,16.21,0,0,0,4.72-3.24V85.83h-8.82a5.83,5.83,0,0,0-4.68,1.89A6.34,6.34,0,0,0,630.82,92,4.31,4.31,0,0,0,631.54,94.33Z"/><path d="M667.18,105V61.35h7.65l2,4.59a42.24,42.24,0,0,1,5.81-3.29,32.65,32.65,0,0,1,5.85-2.07,22.44,22.44,0,0,1,5.17-.67q5.94,0,9.14,2.34a12.4,12.4,0,0,1,4.5,6.35,29.1,29.1,0,0,1,1.3,9V105h-11.7V78.18q0-4.23-1.71-6.39a5.55,5.55,0,0,0-4.59-2.16,12.23,12.23,0,0,0-4.32.81,18.7,18.7,0,0,0-4,2.07c-1.23.84-2.36,1.62-3.38,2.34V105Z"/><path d="M740.35,91.5q1.89.9,4.46,1.89a43.64,43.64,0,0,0,5.4,1.67,24,24,0,0,0,5.44.67,21.93,21.93,0,0,0,6.12-.72,7.27,7.27,0,0,0,3.65-2.2,5.6,5.6,0,0,0,1.21-3.65,4.9,4.9,0,0,0-1.75-3.69,26.14,26.14,0,0,0-4.46-3.2l-5.49-3.19c-2.16-1.32-4.31-2.67-6.43-4a47,47,0,0,1-5.9-4.5,20.55,20.55,0,0,1-4.32-5.36,13,13,0,0,1-1.62-6.43,14.61,14.61,0,0,1,2.48-8.37,16.81,16.81,0,0,1,7.2-5.85,27.22,27.22,0,0,1,11.38-2.16,30.52,30.52,0,0,1,9.18,1.44A58.65,58.65,0,0,1,775,47l-4,9.36c-1.2-.6-2.49-1.18-3.87-1.75a32.28,32.28,0,0,0-4.36-1.44,19.84,19.84,0,0,0-4.91-.59,12.83,12.83,0,0,0-6.57,1.53,5.06,5.06,0,0,0-2.61,4.68,5.58,5.58,0,0,0,1.62,4,17.82,17.82,0,0,0,4.32,3.2c1.8,1,3.66,2.11,5.58,3.37l6.53,3.83a41.72,41.72,0,0,1,6,4.23,18.85,18.85,0,0,1,4.32,5.17,13.73,13.73,0,0,1,1.62,6.84,14.31,14.31,0,0,1-2.7,8.6,18.64,18.64,0,0,1-7.74,6,30.44,30.44,0,0,1-12.42,2.25,22.59,22.59,0,0,1-4.36-.5c-1.66-.33-3.35-.73-5.09-1.21a46.11,46.11,0,0,1-4.86-1.62,22.13,22.13,0,0,1-3.78-1.89Z"/><path d="M787.06,53.29a6.48,6.48,0,0,1-1.89-4.72,6.36,6.36,0,0,1,1.89-4.68A6.25,6.25,0,0,1,791.65,42a6.43,6.43,0,0,1,4.64,1.89,6.28,6.28,0,0,1,1.93,4.68,6.48,6.48,0,0,1-1.89,4.72,6.14,6.14,0,0,1-4.59,1.94A6.25,6.25,0,0,1,787.06,53.29ZM785.89,105V61.35h11.79V105Z"/><path d="M808.48,93.75c1.44.54,2.82,1,4.14,1.48a27.46,27.46,0,0,0,3.83,1,18,18,0,0,0,3.46.36,13,13,0,0,0,3.15-.4A8.36,8.36,0,0,0,825.9,95a2.5,2.5,0,0,0,1.21-2.11,3.4,3.4,0,0,0-.9-2.29,9.21,9.21,0,0,0-2.56-1.94A21.35,21.35,0,0,0,819.46,87a51.69,51.69,0,0,1-6.71-2.92,18.32,18.32,0,0,1-5.58-4.37A9.31,9.31,0,0,1,805,73.5a11.74,11.74,0,0,1,4.54-9.77q4.54-3.54,12.47-3.55a23.48,23.48,0,0,1,4.55.54A40.7,40.7,0,0,1,832,62.25a20.19,20.19,0,0,1,4.95,2.52l-3.51,7.83a55.35,55.35,0,0,0-5.85-2.16,19.63,19.63,0,0,0-5.67-.81,6.05,6.05,0,0,0-3.73,1.12,3.3,3.3,0,0,0-1.49,2.66c-.06.9.67,1.7,2.21,2.38s3,1.31,4.54,1.85a32,32,0,0,1,7.07,3.24,20.81,20.81,0,0,1,5.58,4.91,10.62,10.62,0,0,1,2.2,6.7,11.94,11.94,0,0,1-4.64,10q-4.64,3.6-13.54,3.6a30,30,0,0,1-4.59-.45,30.32,30.32,0,0,1-5.62-1.48,19.43,19.43,0,0,1-4.91-2.57Z"/><path d="M870.4,70.35H858.88V89a9.05,9.05,0,0,0,1.62,5.58,5.59,5.59,0,0,0,4.77,2.16,10.38,10.38,0,0,0,2.34-.27,14.42,14.42,0,0,0,2.43-.81l3.42,8.46a9.1,9.1,0,0,1-2.43,1.3,27.3,27.3,0,0,1-3.24,1,13.72,13.72,0,0,1-3.15.4,21.25,21.25,0,0,1-9.23-1.84,14,14,0,0,1-6-5.36,16,16,0,0,1-2.16-8.55V70.35h-5.94l.09-8.82h5.85V51.09L858.88,49V61.53h7.92Z"/><path d="M889.48,86.64a12.94,12.94,0,0,0,2,5,9.29,9.29,0,0,0,4.14,3.29,17.84,17.84,0,0,0,7,1.17A20,20,0,0,0,909.46,95a34.65,34.65,0,0,0,5.85-2.79l3.42,8.46a24.31,24.31,0,0,1-4.37,2.84,22.62,22.62,0,0,1-5.31,1.88,29.91,29.91,0,0,1-6.7.68q-8.46,0-14.09-2.79a18.67,18.67,0,0,1-8.41-8,25.15,25.15,0,0,1-2.79-12.11A26.44,26.44,0,0,1,879.71,71a19,19,0,0,1,7.61-8A23,23,0,0,1,899,60.18q6.84,0,11.25,3.11a18.29,18.29,0,0,1,6.52,8.32A30.16,30.16,0,0,1,918.91,83v3.6Zm18.36-7.83A12.85,12.85,0,0,0,906,74a8.22,8.22,0,0,0-3.11-2.83,9.6,9.6,0,0,0-8.41,0A8.5,8.5,0,0,0,891.37,74a12.78,12.78,0,0,0-1.8,4.77Z"/><path d="M926.11,105V61.35h6.12l3.87,7.29a34.62,34.62,0,0,1,4.41-3.29,37.63,37.63,0,0,1,5.35-2.83A13.08,13.08,0,0,1,951,61.35l2.34,9.36a13.38,13.38,0,0,0-4.68,1,33.93,33.93,0,0,0-5.45,2.7,35.72,35.72,0,0,0-5.35,4V105Z"/><path d="M960.13,93.75c1.44.54,2.82,1,4.14,1.48a27.71,27.71,0,0,0,3.82,1,18.19,18.19,0,0,0,3.47.36,13,13,0,0,0,3.15-.4A8.22,8.22,0,0,0,977.54,95a2.51,2.51,0,0,0,1.22-2.11,3.4,3.4,0,0,0-.9-2.29,9.13,9.13,0,0,0-2.57-1.94A21,21,0,0,0,971.11,87a51.69,51.69,0,0,1-6.71-2.92,18.32,18.32,0,0,1-5.58-4.37,9.31,9.31,0,0,1-2.2-6.21,11.74,11.74,0,0,1,4.54-9.77q4.55-3.54,12.47-3.55a23.31,23.31,0,0,1,4.54.54,40.41,40.41,0,0,1,5.45,1.53,20.19,20.19,0,0,1,5,2.52l-3.51,7.83a55.35,55.35,0,0,0-5.85-2.16,19.63,19.63,0,0,0-5.67-.81,6.09,6.09,0,0,0-3.74,1.12,3.29,3.29,0,0,0-1.48,2.66c-.06.9.67,1.7,2.2,2.38s3.05,1.31,4.55,1.85a31.9,31.9,0,0,1,7.06,3.24,20.66,20.66,0,0,1,5.58,4.91,10.57,10.57,0,0,1,2.21,6.7,11.94,11.94,0,0,1-4.64,10q-4.63,3.6-13.54,3.6a30,30,0,0,1-4.59-.45,30.63,30.63,0,0,1-5.63-1.48,19.35,19.35,0,0,1-4.9-2.57Z"/><path d="M296.12,145.29a6.48,6.48,0,0,1-1.89-4.72,6.36,6.36,0,0,1,1.89-4.68,6.25,6.25,0,0,1,4.59-1.89,6.39,6.39,0,0,1,4.63,1.89,6.28,6.28,0,0,1,1.94,4.68,6.48,6.48,0,0,1-1.89,4.72,6.14,6.14,0,0,1-4.59,1.94A6.25,6.25,0,0,1,296.12,145.29ZM295,197V153.35h11.79V197Z"/><path d="M316.55,197V153.35h7.65l2,4.59a42.13,42.13,0,0,1,5.8-3.29,32.65,32.65,0,0,1,5.85-2.07,22.52,22.52,0,0,1,5.18-.67q5.94,0,9.13,2.34a12.4,12.4,0,0,1,4.5,6.35,29.09,29.09,0,0,1,1.31,9V197h-11.7V170.18q0-4.23-1.71-6.39a5.55,5.55,0,0,0-4.59-2.16,12.23,12.23,0,0,0-4.32.81,18.77,18.77,0,0,0-4,2.07c-1.23.84-2.35,1.62-3.37,2.34V197Z"/><path d="M433.46,197H385.58l-1.35-9.09L419.15,145h-31l-1.44-9.18h44.64l1.35,9.18-35.91,42.93h35.28Z"/><path d="M441,145.29a6.48,6.48,0,0,1-1.89-4.72,6.36,6.36,0,0,1,1.89-4.68,6.25,6.25,0,0,1,4.59-1.89,6.39,6.39,0,0,1,4.63,1.89,6.28,6.28,0,0,1,1.94,4.68,6.48,6.48,0,0,1-1.89,4.72,6.14,6.14,0,0,1-4.59,1.94A6.23,6.23,0,0,1,441,145.29ZM439.85,197V153.35h11.79V197Z"/><path d="M461.45,197V153.35h7.64l2,4.59a45.25,45.25,0,0,1,5.67-3.29,30.35,30.35,0,0,1,5.58-2.07,19.53,19.53,0,0,1,4.67-.67,15.71,15.71,0,0,1,8.29,1.89,10.73,10.73,0,0,1,4.41,5.45,24.48,24.48,0,0,1,1.34,8.59V197h-11.7V170.18a16.78,16.78,0,0,0-.54-4.72,5.64,5.64,0,0,0-1.71-2.84,4.71,4.71,0,0,0-3.14-1,9.91,9.91,0,0,0-4,.81,18.1,18.1,0,0,0-3.61,2.07c-1.13.84-2.21,1.62-3.23,2.34V197Zm37.43-39.06a46.73,46.73,0,0,1,5.67-3.29,30.84,30.84,0,0,1,5.54-2.07,19.38,19.38,0,0,1,4.73-.67,15.65,15.65,0,0,1,8.27,1.89,10.59,10.59,0,0,1,4.41,5.45,24,24,0,0,1,1.36,8.59V197h-11.7V170.18a15.89,15.89,0,0,0-.59-4.72,6.17,6.17,0,0,0-1.71-2.84,4.55,4.55,0,0,0-3.11-1,10,10,0,0,0-4,.81,18,18,0,0,0-3.59,2.07L501,166.85Z"/><path d="M539.29,197V134.45l11.61-1v56.07L545.23,197Zm4.32-36.72a26.26,26.26,0,0,1,4.46-4.32,19.18,19.18,0,0,1,5.17-2.79,17.36,17.36,0,0,1,5.85-1A23.4,23.4,0,0,1,570.84,155a18.89,18.89,0,0,1,7.56,7.92,28.86,28.86,0,0,1,0,24.16,19.59,19.59,0,0,1-7.61,8.11,23.61,23.61,0,0,1-12.15,2.92,15.59,15.59,0,0,1-5.62-1.17,23.14,23.14,0,0,1-5.54-3.06,16,16,0,0,1-3.87-4l3.33-7.92a18.76,18.76,0,0,0,5.85,4.82,13.64,13.64,0,0,0,5.85,1.3,9.35,9.35,0,0,0,5.67-1.71,10,10,0,0,0,3.47-4.72A19.08,19.08,0,0,0,568.9,175a17.28,17.28,0,0,0-1.17-6.62,10.5,10.5,0,0,0-3.42-4.5,9.34,9.34,0,0,0-5.67-1.66,12.24,12.24,0,0,0-5.85,1.44,29.58,29.58,0,0,0-5.85,4.32Z"/><path d="M589.33,156.14a16.41,16.41,0,0,1,4.68-2,55.36,55.36,0,0,1,6.08-1.4,30.32,30.32,0,0,1,4.9-.54,21.79,21.79,0,0,1,9.54,2.07,17.53,17.53,0,0,1,6.89,5.71,14.12,14.12,0,0,1,2.56,8.33V197h-7.65l-2-4.68a22.67,22.67,0,0,1-5.35,4.14,12.56,12.56,0,0,1-6.17,1.62q-8,0-11.88-3.91A13.93,13.93,0,0,1,587.08,184q0-6.75,4.59-10.31t12-3.64h8.55v-.09a7.15,7.15,0,0,0-1.93-5.08,6.89,6.89,0,0,0-5.09-1.85,27.59,27.59,0,0,0-6.66.9,37.38,37.38,0,0,0-6,2Zm8.55,30.19a5.25,5.25,0,0,0,1.94,1.8,5.73,5.73,0,0,0,2.83.68,12.21,12.21,0,0,0,4.91-1.08,16.21,16.21,0,0,0,4.72-3.24v-6.66h-8.82a5.83,5.83,0,0,0-4.68,1.89,6.34,6.34,0,0,0-1.62,4.23A4.31,4.31,0,0,0,597.88,186.33Z"/><path d="M634.42,197V134.45l11.61-1v56.07L640.36,197Zm4.32-36.72A26.26,26.26,0,0,1,643.2,156a19.18,19.18,0,0,1,5.17-2.79,17.36,17.36,0,0,1,5.85-1A23.4,23.4,0,0,1,666,155a18.89,18.89,0,0,1,7.56,7.92,28.86,28.86,0,0,1,0,24.16,19.59,19.59,0,0,1-7.61,8.11,23.61,23.61,0,0,1-12.15,2.92,15.59,15.59,0,0,1-5.62-1.17,23.14,23.14,0,0,1-5.54-3.06,16,16,0,0,1-3.87-4l3.33-7.92a18.76,18.76,0,0,0,5.85,4.82,13.64,13.64,0,0,0,5.85,1.3,9.35,9.35,0,0,0,5.67-1.71,10,10,0,0,0,3.47-4.72A19.08,19.08,0,0,0,664,175a17.28,17.28,0,0,0-1.17-6.62,10.5,10.5,0,0,0-3.42-4.5,9.34,9.34,0,0,0-5.67-1.66,12.24,12.24,0,0,0-5.85,1.44,29.58,29.58,0,0,0-5.85,4.32Z"/><path d="M718.39,197l-8.28-26.64L702.28,197h-9.9l-13-41.85,11.61-3.42,6.66,27.09,6.3-25.47h12.87l6.75,25.47,6.21-25.47h12.33L728,197Z"/><path d="M757.63,178.64a12.94,12.94,0,0,0,2,5,9.29,9.29,0,0,0,4.14,3.29,17.84,17.84,0,0,0,7,1.17,20,20,0,0,0,6.84-1.08,34.65,34.65,0,0,0,5.85-2.79l3.42,8.46a23.65,23.65,0,0,1-4.36,2.83,22.64,22.64,0,0,1-5.31,1.9,30,30,0,0,1-6.71.67q-8.46,0-14.08-2.79a18.69,18.69,0,0,1-8.42-8,25.15,25.15,0,0,1-2.79-12.11A26.37,26.37,0,0,1,747.87,163a18.9,18.9,0,0,1,7.6-8,23,23,0,0,1,11.7-2.84q6.84,0,11.25,3.11a18.36,18.36,0,0,1,6.53,8.32A30.16,30.16,0,0,1,787.06,175v3.6ZM776,170.81a12.85,12.85,0,0,0-1.8-4.86,8.2,8.2,0,0,0-3.1-2.83,9.62,9.62,0,0,0-8.42,0,8.5,8.5,0,0,0-3.15,2.88,12.78,12.78,0,0,0-1.8,4.77Z"/></svg>